<?xml version="1.0" standalone="no"?>
<!DOCTYPE svg PUBLIC "-//W3C//DTD SVG 1.1//EN" "http://www.w3.org/Graphics/SVG/1.1/DTD/svg11.dtd">
<svg xmlns="http://www.w3.org/2000/svg">
<metadata>Copyright (C) 2018 by original authors @ fontello.com</metadata>
<defs>
<font id="fontello-custom" horiz-adv-x="1000" >
<font-face font-family="fontello-custom" font-weight="400" font-stretch="normal" units-per-em="1000" ascent="850" descent="-150" />
<missing-glyph horiz-adv-x="1000" />
<glyph glyph-name="clock" unicode="&#xe800;" d="M768 576v128h65c12 0 21 8 21 21v104c0 13-9 21-21 21h-666c-12 0-20-8-20-21v-104c0-13 8-21 20-21h65v-126c0-94 51-180 130-228-79-48-130-134-130-228v-126h-65c-12 0-20-8-20-21v-104c0-13 8-21 20-21h666c12 0 21 8 21 21v104c0 13-9 21-21 21h-65v126c0 94-51 180-130 228 79 46 130 132 130 226z m-580 169v64h625v-64h-625z m625-795v-63h-625v63h625z m-229 417c-17-6-17-32 0-40 86-36 143-117 143-209v-125h-454v125c0 92 57 173 143 209 17 6 17 31 0 40-86 33-143 117-143 209v128h452v-126c2-94-55-176-141-211z m69 230c-297-42-310-61-314-71-4-6-4-15-2-21 33-75 92-92 155-117 8-2 12 0 14 0 55 23 161 52 170 175 2 34-17 36-23 34z m-153-165c-50 21-88 29-115 75 40 13 146 31 249 46-17-84-82-100-134-121z m-6-126c-53-21-170-54-170-188v-57c0-12 9-21 21-21h312c13 0 21 9 21 21v57c0 130-109 163-170 188-4 2-10 2-14 0z m143-186v-36h-274v36c0 102 89 128 137 144 44-16 137-42 137-144z" horiz-adv-x="1000" />

<glyph glyph-name="graph" unicode="&#xe801;" d="M822 695c-100 100-233 155-374 155-47 0-92-6-137-18l-18-5 52-194c-49-16-93-43-129-79-37-37-64-81-80-130l-46 13-5-18c-15-58-16-118-4-176l-57-16 4-18c20-73 59-140 113-195 49-49 110-85 177-106l-10-37 18-5c39-11 80-16 122-16 126 0 244 49 333 138 54 54 94 121 116 194l57-16 5 19c48 182-4 377-137 510z m-580-168c32 32 70 56 113 70l61-229 5-20-84 23-165 44c14 42 38 80 70 112z m-125-136l258-70-258-69c-10 46-10 93 0 139z m51-350c-45 45-79 100-98 160l198 53 153 41-94-351c-60 19-115 52-159 97z m587-26c-82-82-191-128-307-128-32 0-63 4-94 11l107 400 401-107c-21-66-58-127-107-176z m172 197l-464 125-124 463c36 8 72 13 109 13 131 0 254-51 347-144 119-119 169-293 132-457z m-157 409c-18-7-34-16-49-26-32-21-59-49-81-84-4-6-8-16-14-27-11-24-38-78-56-81-5 0-10 5-12 7-11 17-17 39-23 63-8 31-18 63-39 88-4 3-6 7-10 10l-25-28c21-18 29-48 37-80 7-25 14-51 30-76 14-17 30-21 41-21 2 0 4 0 5 0 39 5 66 61 86 101 5 10 9 19 12 24 28 46 65 77 111 95l-6 17-7 18z" horiz-adv-x="1000" />

<glyph glyph-name="handshake" unicode="&#xe802;" d="M626 691h-251l-88 62-287-409 65-45-30-21 86-123 20 15 67-96 46 32 66-95 46 32 67-96 67 47 67-47 67 96 46-32 67 95 46-30 65 94 22-15 86 123-30 21 64 45-286 409-88-62z m-497-490l-48 69 75 53 48-69-75-53z m106-68l-19-13-48 69 111 78 49-69-93-65 0 0z m94-77l-48 69 103 72 48-68-103-73z m112-63l-48 69 76 53 48-69-76-53z m479 277l-48-68-87 62-170 119-19-27 29-20 207-146-48-69-32 21-29 21-139 99-19-26 155-111-48-69-19 14 0 0-60 41-1 1-55 39-10-13-9-14 71-50 18-12-48-69-30 21 34 24-66 94-20 28-19-13-3 6-63 90-38-26-67 96-56-40-67 95-70-49-48 33 249 355 69-48h215l-10-7-256-99-23-200 126-19 36 110 14 2h181 11 9l24-16 216-151 0 0 13-9z m-13 49l-229 160h-5l-210 0-36-6-33-102-68 10 17 148 240 93 123 85 248-355-47-33z" horiz-adv-x="1000" />

<glyph glyph-name="key" unicode="&#xe803;" d="M923 350c-49 49-115 76-185 76-40 0-81-9-117-27l-399 399-222-223 117-117 60 59 35-34-60-60 118-117 105 105 129-130c-50-100-31-222 49-302 49-49 115-77 185-77 70 0 136 28 185 77 103 102 103 269 0 371z m-23-347c-43-44-101-67-162-67-61 0-119 23-162 67-72 72-87 184-37 273l6 11-170 170-105-105-71 71 60 60-82 81-60-59-70 70 175 176 393-393 11 6c34 19 73 29 112 29 62 0 119-23 162-67 89-89 89-234 0-323z m-253 253c-25-24-38-57-38-91 0-35 13-68 38-92 24-24 56-38 91-38 35 0 67 14 91 38 25 24 38 57 38 92 0 34-13 67-38 91-48 49-134 49-182 0z m159-159c-36-37-100-37-136 0-18 18-28 42-28 68 0 25 10 49 28 67 18 19 42 29 68 29 26 0 50-10 68-29 18-18 28-42 28-67 0-26-10-50-28-68z" horiz-adv-x="1000" />

<glyph glyph-name="man" unicode="&#xe804;" d="M997 298c0 1 0 1 1 2 0 3 0 7 0 10 1 1 1 2 1 2 0 4 0 8 0 12 0 0 0 1 0 2 1 3 1 6 1 9 0 1 0 3 0 4 0 3 0 7 0 11 0 9 0 17-1 26-13 264-232 474-499 474 0 0 0 0 0 0s0 0 0 0c-267 0-486-210-499-474-1-9-1-17-1-26 0-4 0-8 0-11 0-1 0-3 0-4 0-3 0-6 1-9 0-1 0-2 0-2 0-4 0-8 0-12 1 0 1-1 1-2 0-3 0-7 1-10 0-1 0-1 0-2 3-30 9-60 17-90l1 0c42-141 144-257 278-316l0 0c60-27 125-41 191-42 3 0 7 0 10 0 0 0 0 0 0 0s0 0 0 0c3 0 7 0 10 0 66 1 131 15 191 42l0 0c134 59 237 175 279 316l0 0c8 30 14 60 17 90z m-30 41c0-1 0-2 0-3 0-3 0-6 0-9 0 0 0-1 0-1 0-4 0-8-1-11 0-1 0-1 0-2 0-3 0-7-1-10 0 0 0-1 0-1-8-76-34-147-74-208-25 9-97 33-154 50l0 5-54 30-65 26c0 11 1 21 2 29 21 15 34 35 36 54 1 12 3 25 4 38 17 1 30 13 32 30l9 90c1 8-2 17-7 24-4 5-10 9-16 11 1 10 3 21 4 33 0 2 0 5 1 8 2 29 8 89-38 131-34 33-88 52-148 52-60 0-114-19-148-52-46-41-40-102-38-131 1-3 1-6 1-9l1-10c1-8 2-15 3-23-15-4-24-19-23-34l9-90c2-17 15-29 32-30 1-12 3-23 4-35l0-3c2-19 16-39 36-54 1-8 2-19 3-31l-58-23-56-31 0-5c-57-17-129-41-154-50-40 61-66 132-74 208 0 0 0 1 0 1 0 3-1 7-1 10 0 1 0 1 0 2 0 3-1 7-1 11 0 0 0 1 0 1 0 3 0 6 0 9 0 1 0 2 0 3 0 4 0 7 0 11 0 8 0 16 0 24 13 247 217 444 467 444 250 0 454-197 467-444 0-8 1-16 1-24 0-4 0-7-1-11z m-262-347l-57-25 18-54c-28-11-58-19-89-24l97 239c7-2 18-4 31-8l0-128z m-205-110c-4 0-8 0-12 1-12 0-29 4-29 4l-102 252 23 16c1-8 2-15 2-19l1-6 105-93 123 92 1 7c0 4 1 9 2 16l19-13-104-255c0 0-11-1-17-1-4-1-8-1-12-1z m-204 238c12 4 23 6 30 8l97-239c-31 5-61 13-89 24l18 54-57 25 1 128z m232 351c-5-2-9-7-11-12 0-5-1-8-1-12 0-1 0-1 0-1h-31c0 4-1 7-2 11-1 6-5 10-10 12-34 12-69 16-104 10v85c0 9 8 17 17 17h222c9 0 17-8 17-17v-85c-33 5-66 3-97-8z m-170-38c0 3 0 6 0 10 31 9 64 8 94-1l1-10c0-18-16-34-37-35l-22 0c-10 0-20 4-27 11-6 7-10 16-9 25z m190 10c31 9 63 8 94-1l-1-8 2 1c0-1 0-2 0-3 0-8-3-16-9-22-7-8-17-13-28-13l-22 0c-11 0-20 4-27 11-6 7-10 16-9 24 0 4 0 8 0 11z m110-55c2 2 3 4 5 6l-4-35-1 0v0l-15 16c6 4 11 8 15 13z m-50 224h-222c-15 0-28-6-37-17 4 12 11 24 23 34 27 27 74 44 125 44 51 0 98-17 126-44 11-10 18-22 23-35-9 11-23 18-38 18z m-265-226c3-3 6-6 10-8l-18-19-5 47c3-7 8-14 13-20z m51-22h0l23 0c32 1 58 23 66 49h35c2-10 8-20 15-28 13-13 32-21 51-21h0l23 0c9 1 18 3 26 6l-3-20c-2-20-4-39-7-59 0-9-10-23-27-34l-6-4-1-8c-2-11-3-31-5-53-1-17-2-34-4-45l-90-68-76 67c-1 11-3 28-4 45 0 9-1 18-2 26l47-23h84v31h-77l-68 34 0 0c-14 11-23 24-23 32l-1 4c-2 18-4 36-6 55l-4 23c10-6 22-9 34-9z m-266-297c38 13 92 30 135 43l-1-140 50-21-8-23c-69 32-130 81-176 141z m568-141l-8 23 50 21-1 140c43-13 97-30 135-43-46-60-107-109-176-141z" horiz-adv-x="1000" />

<glyph glyph-name="money" unicode="&#xe805;" d="M787 456c5 24 8 47 8 71 0 163-132 296-295 296-163 0-295-133-295-296 0-24 3-48 8-71-126-36-213-150-213-283 0-163 132-296 295-296 77 0 150 30 205 83 55-53 129-83 205-83 163 0 295 133 295 296 0 133-87 247-213 283z m-82-545c-74 0-142 30-193 84l-12 14-12-14c-50-53-120-84-193-84-144 0-262 117-262 262 0 123 84 228 205 255l17 4-5 17c-8 26-12 52-12 78 0 145 118 262 262 262 144 0 262-117 262-262 0-26-4-52-12-78l-5-17 18-4c120-27 204-132 204-255 0-145-118-262-262-262z m-99 370c13 14 30 24 48 31 28 11 65 15 95 9 10-2 19-5 28-8 8-4 16-8 23-13 7-4 13-9 18-15l12 12 12 11c-7 7-15 14-24 20-9 6-18 11-29 15-10 5-21 8-33 10-37 8-80 4-114-10-23-9-43-22-59-38-17-16-30-36-39-59-4-9-7-19-9-31h-27v-33h23c-1-2-1-6-1-9 0-7 1-12 1-18h-35v-33h40c2-8 3-15 6-22 8-22 20-42 35-58 15-17 34-30 56-39 21-10 46-14 73-14 29 0 55 5 77 14 23 10 42 25 56 44l-13 10-13 11c-12-15-26-27-43-34-34-15-87-16-124-1-18 8-33 18-45 31-12 14-21 29-28 48-1 3-2 6-2 10h124v33h-131c0 6-1 11-1 18 0 3 1 7 1 9h143v33h-138c2 6 3 13 5 19 8 18 18 34 32 47z m-276 42l6 35c1 9-5 17-14 19-9 1-18-5-19-14l-6-37c-8 0-17 0-25-1-51-8-80-38-77-81 3-56 43-70 78-78l-17-119c-24 4-44 15-50 27-4 8-14 12-22 8-8-4-12-14-8-22 12-24 42-40 75-46l-4-26c-1-9 5-18 14-19 1 0 2 0 2 0 8 0 16 6 17 14l4 28c10 0 19 1 28 3 44 10 70 40 71 82 0 65-37 85-72 95l15 100c25-5 44-16 47-26 2-9 11-15 20-12 9 2 14 11 12 20-7 26-38 43-75 50z m-52-124c-31 8-48 16-50 47-2 31 26 42 49 46 5 1 10 1 15 1l-14-94z m71-102c0-27-15-44-44-50-5-2-11-2-16-3l17 114c28-9 44-22 43-61z m153 292h31v33h-28l1 28h33v33h-30l1 26 116 166c5 8 3 18-4 24-8 5-18 3-24-5l-103-148-91 148c-5 8-15 10-23 5-8-5-10-15-5-23l101-165-2-28h-32v-33h30l-2-28h-33v-33h31l-2-28c-1-9 6-17 15-17h2c8 0 16 6 16 15l2 30z" horiz-adv-x="1000" />

<glyph glyph-name="team" unicode="&#xe806;" d="M818 358c-7 4-15 7-23 9v166c8 2 16 5 23 9 18 11 31 28 37 48 5 21 2 42-8 60-15 24-41 40-69 40-14 0-27-4-39-11-7-4-13-9-18-14l-145 84c2 7 3 14 3 22 0 44-35 79-79 79-44 0-79-35-79-79 0-7 1-13 3-20l-147-84c-4 5-10 9-15 12-12 7-26 11-40 11-28 0-54-16-68-40-11-18-14-39-8-60 5-20 18-37 37-48 5-3 12-6 18-8v-168c-6-2-13-5-18-8-19-11-32-28-37-48-6-20-3-42 8-60 14-24 40-39 68-39 14 0 28 3 40 10 6 4 13 9 18 14l79-45v-103c0-29 34-48 57-48v-189h31l0 0h37l0 0h32l0 0h37l0 0h31v189c23 1 57 19 57 48v106l77 44c6-6 13-11 20-16 12-7 26-10 40-10 28 0 55 15 69 39 21 38 9 86-29 108z m-65 295c8 5 16 7 25 7 18 0 34-9 43-25 7-11 8-24 5-37-4-13-12-24-23-30-8-5-16-7-25-7-18 0-34 9-43 25-14 23-5 54 18 67z m-253 168c27 0 50-23 50-50 0-27-23-50-50-50-27 0-50 23-50 50 0 27 23 50 50 50z m-303-253c-11 6-19 17-23 30-3 13-1 26 5 37 9 16 25 25 43 25 9 0 17-2 25-7 11-6 20-17 23-30 3-12 2-26-5-37-9-16-25-25-43-25-9 0-17 2-25 7z m50-321c-8-5-16-7-25-7-18 0-34 10-43 25-6 11-8 25-5 37 4 13 12 24 23 31 8 4 16 6 25 6 18 0 34-9 43-25 14-23 6-54-18-67z m364-160c0-7-15-18-27-18v207h-31v-397h-37v184h-32v-184h-37v397h-31v-207c-12 0-27 11-27 18v199c0 12 10 27 21 30 59 18 121 18 180 0 11-3 21-18 21-30v-199z m108 255l-119 69-14-26 118-68c-6-15-7-32-2-48 0-2 1-4 1-6l-62-37v60c0 25-19 52-43 59-64 19-132 19-197 0-23-7-42-34-42-59v-62l-63 36c6 17 7 37 1 55l122 70-14 26-122-71c-14 16-33 26-52 28v164c23 3 44 15 57 35l117-67 14 25-120 70c3 11 3 24-1 36-1 4-2 8-4 12l142 82c11-16 29-28 48-32v-136h32v136c17 4 35 15 47 30l142-83c-6-15-8-32-4-48l-115-67 15-25 112 65c12-17 31-29 51-32v-166c-18-3-33-12-45-25z m102-77c-9-15-25-25-43-25-9 0-17 2-25 7-23 13-32 44-18 67 9 16 25 25 43 25 9 0 17-2 25-6 23-14 32-45 18-68z m-321 264c-44 0-79-35-79-79 0-43 35-79 79-79 44 0 79 36 79 79 0 44-35 79-79 79z m0-128c-27 0-50 22-50 49s23 50 50 50c27 0 50-23 50-50s-23-49-50-49z" horiz-adv-x="1000" />

<glyph glyph-name="truck" unicode="&#xe807;" d="M855 467l-16 28-84-50 17-27 83 49z m-58-55l17-27 54 33-16 27-55-33z m-6-302c-24 0-44-19-44-43 0-24 20-44 44-44 24 0 43 20 43 44 0 24-19 43-43 43z m0-55c-6 0-12 6-12 12 0 6 6 11 12 11 6 0 11-5 11-11 0-6-5-12-11-12z m-564 55c-24 0-44-19-44-43 0-24 20-44 44-44s43 20 43 44c0 24-19 43-43 43z m0-55c-7 0-12 6-12 12 0 6 5 11 12 11 6 0 11-5 11-11 0-6-5-12-11-12z m771 246v123l-200 209h-183v114h-615v-696h115c8-55 55-97 112-97 56 0 103 42 111 97h341c8-55 55-97 112-97 57 0 104 42 111 97h96v96h2v154h-2z m-35 114l4-4v-53h-244v164h137l103-107z m-845-319c0 0 0-1-1-2 0-1 0-2 0-3 0-1-1-1-1-2 0-1 0-3 0-4 0 0-1-1-1-2 0 0 0-1 0-1h-84v16h87c0 0 0-1 0-2z m189-30c0-44-36-80-80-80-45 0-80 36-80 81 0 0 0 0 0 0 0 2-1 3-1 5 0 0 0 0 0 0 1 12 5 23 11 34l3 7c15 21 39 35 67 35 27 0 51-14 66-35l4-7c7-13 10-26 10-39v-1z m277 16h-246c0 0 0 1 0 1 0 1 0 2 0 2 0 1-1 3-1 4 0 1 0 1 0 2 0 1-1 2-1 3 0 1 0 2 0 2-1 1-1 2-1 2h249v-16z m0 47h-264c0 0 0 1 0 1 0 0 0 0 0 0-1 2-2 3-3 4 0 0-1 1-1 1-1 1-1 2-2 3 0 1-1 1-1 2-1 0-2 1-2 2-1 1-1 1-2 2-1 0-1 1-2 2 0 0-1 1-1 1-1 1-2 2-3 2 0 1-1 1-1 2-1 1-2 1-3 2 0 0-1 1-1 1-1 1-2 2-3 2 0 1-1 1-1 1-1 1-2 2-3 2-1 1-1 1-2 1-1 1-2 2-3 2 0 1-1 1-1 1-2 1-3 2-5 3 0 0 0 0-1 1-1 0-2 1-3 1-1 1-1 1-2 1-1 1-2 1-3 1-1 1-1 1-2 1-1 1-2 1-3 1-1 1-1 1-2 1-1 1-2 1-3 1-1 0-1 1-2 1-1 0-2 0-3 1-1 0-1 0-2 0-1 0-2 1-3 1-1 0-2 0-3 0-1 1-2 1-3 1 0 0-1 0-2 0-1 0-2 1-3 1-1 0-2 0-2 0-1 0-3 0-4 0 0 0-1 0-2 0-2 1-3 1-5 1-2 0-4 0-6-1 0 0-1 0-2 0-1 0-2 0-3 0-1 0-2 0-2 0-2 0-3 0-4-1 0 0-1 0-2 0-1 0-2 0-3-1-1 0-2 0-2 0-1 0-2 0-3-1-1 0-2 0-3 0-1-1-1-1-2-1-1 0-2-1-3-1-1 0-2 0-2-1-1 0-2 0-3-1-1 0-1 0-2-1-1 0-2 0-3-1-1 0-1 0-2-1-1 0-2 0-2-1-1 0-2-1-3-1-1 0-1-1-2-1-2-1-3-2-4-3-1 0-2-1-3-1 0-1-1-1-2-1-1-1-1-1-2-2-1 0-1-1-2-1-1-1-2-2-2-2-1-1-1-1-2-2-1 0-2-1-2-1-1-1-1-1-2-2-1-1-1-1-2-2-1 0-1-1-2-1 0-1-1-2-2-2 0-1-1-2-1-2-1-1-2-2-2-2-1-1-1-1-2-2 0-1-1-1-2-2 0-1-1-1-1-2-1-1-1-1-2-2 0-1-1-2-1-2-1-1-1-1-2-3h-102v584h553v-584z m98-33c0 0 0-1 0-2-1-1-1-2-1-3 0-1 0-1-1-2 0-1 0-3 0-4 0 0 0-1-1-2 0 0 0-1 0-1h-64v16h68c-1 0-1-1-1-2z m189-30c0-44-36-80-80-80-44 0-80 36-80 81 0 0 0 0 0 0 0 2 0 3 0 5 0 0 0 0 0 0 0 12 4 23 10 34l3 7c15 21 39 35 67 35 22 0 42-9 57-24 3-3 6-7 9-11l4-7c6-11 10-22 10-34 0 0 0 0 0 0 0-2 0-3 0-5v-1z m96 16h-65c0 0 0 1 0 2 0 0 0 0 0 0 0 2 0 4-1 5 0 1 0 1 0 1 0 2-1 3-1 4 0 1 0 2 0 2 0 1-1 0-1 2h68v-16z m0 98h-20v90h20v-90z m0 121h-53v-154h53v-18h-83c0 0 0 1 0 1 0 0 0 1-1 1 0 1-1 2-2 3 0 0-1 1-1 2-1 0-1 1-2 2 0 1-1 1-1 2-1 0-2 1-2 2-1 0-1 1-2 2 0 0-1 1-2 2 0 0-1 1-1 1-1 1-2 2-2 2-1 1-2 1-2 2-1 1-2 1-2 2-1 0-2 1-2 1-1 1-2 2-3 2 0 1-1 1-1 1-1 1-2 2-3 2 0 1-1 1-1 1-2 1-3 2-4 3 0 0 0 0-1 0-1 1-3 2-4 3-1 0-1 0-1 0-2 1-3 2-4 2-1 1-1 1-2 1-1 1-2 1-3 1 0 1-1 1-2 1-1 1-2 1-3 1 0 1-1 1-2 1-1 1-2 1-3 1 0 0-1 1-2 1-1 0-2 0-3 1-1 0-1 0-2 0-1 1-2 1-3 1-1 0-2 0-2 0-1 1-2 1-3 1-1 0-2 0-3 0-1 1-2 1-3 1-1 0-1 0-2 0-1 0-3 0-4 0 0 0-1 0-2 0-1 1-3 1-5 1-2 0-4 0-6-1 0 0-1 0-1 0-2 0-3 0-4 0-1 0-2 0-2 0-1 0-2 0-4-1 0 0-1 0-2 0-1 0-2 0-3-1-1 0-1 0-2 0-1 0-2-1-3-1-1 0-2 0-2 0-1-1-2-1-3-1-1 0-2-1-2-1-2 0-3-1-4-1 0 0-1 0-1-1-2 0-3 0-4-1 0 0-1 0-1 0-2-1-3-2-4-2 0 0-1 0-1-1-5-2-10-5-14-8 0 0 0 0-1 0-1-1-2-2-3-3-1 0-1 0-1 0-1-1-2-2-3-3-1 0-1-1-1-1-1-1-2-1-3-2-1-1-1-1-1-1-1-1-2-2-3-3 0 0-1-1-1-1-1-1-2-2-3-3 0 0-1 0-1-1-1-1-1-2-2-3-1 0-1 0-1-1-1-1-2-2-3-3 0 0 0-1-1-1 0-1-1-2-2-4 0 0 0 0-1 0 0 0 0-1 0-1h-82v471h169l45-47h-138v-226h276v-26z m-451 348h-414v-31h414v31z m0-125h-414v-31h414v31z m0-123h-414v-33h414v33z m0-125h-414v-33h414v33z" horiz-adv-x="1000" />

<glyph glyph-name="search" unicode="&#xe815;" d="M120 445c0 158 129 286 289 286 159 0 288-128 288-286 0-158-129-287-288-287-160 0-289 129-289 287z m880-497l-261 259c49 67 78 149 78 238 0 223-183 405-408 405-226 0-409-182-409-405 0-224 183-406 409-406 85 0 164 26 230 71l262-260 99 98z" horiz-adv-x="1000" />

<glyph glyph-name="instagram-with-circle" unicode="&#xe816;" d="M703 504a86 86 0 0 1-49 49 144 144 0 0 1-49 9c-27 1-35 2-105 2s-78-1-105-2a144 144 0 0 1-49-9 86 86 0 0 1-49-49 144 144 0 0 1-9-49c-1-27-1-35-1-105s0-78 1-105a144 144 0 0 1 9-49 86 86 0 0 1 49-49 144 144 0 0 1 49-9c27-1 36-1 105-1s78 0 105 1a144 144 0 0 1 49 9 86 86 0 0 1 49 49 144 144 0 0 1 9 49c1 27 2 36 2 105s-1 78-2 105a144 144 0 0 1-9 49z m-203-288a134 134 0 1 0 134 134 134 134 0 0 0-134-134z m139 242a31 31 0 1 0 31 31 31 31 0 0 0-31-31z m-52-108a87 87 0 1 0-87 87 87 87 0 0 0 87-87z m-87 500a500 500 0 1 1 500-500 500 500 0 0 1-500 500z m259-607a191 191 0 0 0-12-64 133 133 0 0 0-76-76 191 191 0 0 0-64-12c-27-1-36-1-107-1s-80 0-107 1a191 191 0 0 0-64 12 133 133 0 0 0-76 76 191 191 0 0 0-12 64c-1 27-1 36-1 107s0 80 1 107a191 191 0 0 0 12 64 133 133 0 0 0 76 76 191 191 0 0 0 64 12c27 1 36 1 107 1s80 0 107-1a191 191 0 0 0 64-12 133 133 0 0 0 76-76 191 191 0 0 0 12-64c1-27 1-36 1-107s0-80-1-107z" horiz-adv-x="1000" />

<glyph glyph-name="calendar" unicode="&#xe81a;" d="M870 786c-10 31-38 54-73 54-34 0-62-23-72-54h-153c-9 31-38 54-72 54-34 0-63-23-72-54h-153c-9 31-38 54-72 54-35 0-63-23-73-54h-130v-924h1000v924h-130z m-108-23c0 20 16 36 36 36 20 0 36-16 36-36v-82c0-21-16-37-36-37-20 0-36 16-36 37v82z m-299 0c0 20 17 36 37 36 20 0 37-16 37-36v-82c0-21-17-37-37-37-20 0-37 16-37 37v82z m-297 0c0 20 16 36 36 36 20 0 36-16 36-36v-82c0-21-16-37-36-37-20 0-36 16-36 37v82z m795-862h-922v562h922v-562z m0 601h-922v243h88v-64c0-42 34-77 76-77 42 0 76 35 76 77v64h145v-64c0-42 34-77 76-77 42 0 76 35 76 77v64h145v-64c0-42 34-77 76-77 42 0 76 35 76 77v64h88v-243z m-707-76h-160v-133h160v133z m-41-94h-78v55h78v-55z m258 94h-158v-133h158v133z m-39-94h-80v55h80v-55z m256 94h-159v-133h159v133z m-40-94h-80v55h80v-55z m258 94h-160v-133h160v133z m-41-94h-78v55h78v-55z m-611-76h-160v-133h160v133z m-41-93h-78v54h78v-54z m258 93h-158v-133h158v133z m-39-93h-80v54h80v-54z m474 93h-160v-133h160v133z m-41-93h-78v54h78v-54z m-611-75h-160v-135h160v135z m-41-94h-78v53h78v-53z m258 94h-158v-135h158v135z m-39-94h-80v53h80v-53z m256 94h-159v-135h159v135z m-40-94h-80v53h80v-53z m258 94h-160v-135h160v135z m-41-94h-78v53h78v-53z m-215 256l-44-70-23 41c-5 10-17 13-27 8-10-5-13-17-7-27l39-71c0 0 0 0 1-1 1-2 3-5 6-7 0 0 0 0 0 0 3-1 7-2 10-2 4 0 7 1 10 2h0c3 2 5 4 7 7 0 0 0 0 0 0l62 99c5 9 3 21-7 27-9 6-21 3-27-6z" horiz-adv-x="1000" />

<glyph glyph-name="baloon" unicode="&#xe81b;" d="M861 515c-19 185-181 335-361 335 0 0 0 0 0 0-180 0-342-150-361-335-21-154 60-323 217-455l80-74 11-49v-87h106v99l8 34 76 70 0 0c165 141 245 305 224 462z m-311-433c63 239 56 477-19 712 103-82 169-189 185-307 20-138-26-278-132-405h-34z m-135 0c-106 125-153 270-134 406 17 119 84 227 190 308-81-235-88-475-21-714h-35z m66 0c-68 237-62 475 20 708 76-233 82-471 18-708h-38z m-313 429c16 153 136 280 280 305-109-86-178-200-196-324-20-138 25-283 125-410h-2c-149 125-226 285-207 429z m306-561l-7 29h63l-7-29h-49z m3-71v41l1 0h41l4 0v-41h-46z m68 129h-90l-49 45h187l-48-45z m81 74h-4c99 127 143 272 124 409-18 125-86 238-195 325 144-25 265-152 281-305 19-144-54-296-206-429z" horiz-adv-x="1000" />

<glyph glyph-name="camera" unicode="&#xe81c;" d="M956 626v46h-132v-46h-9l-25 89c0 0 0 0 0 1-5 14-15 39-44 39h-292c-22 0-36-13-45-40l-25-89h-124c-6 25-39 43-81 43s-75-18-82-43h-52c-25 0-45-20-45-45v-592c0-24 20-44 45-44h910c25 0 45 20 45 44v592c0 24-20 44-44 45z m-102 16h72v-16h-72v16z m-675-3c32 0 53-14 53-23 0-9-21-23-53-23s-53 14-53 23c0 9 21 23 53 23z m-106-43h28c12-20 41-33 78-33s65 13 77 33h121l-6-21c-4-9-21-19-29-19h-259c-6 0-10 4-10 10v30z m897-607c0-8-7-14-15-14h-910c-8 0-15 6-15 14v592c0 7 5 14 13 15v-30c0-22 18-40 40-40h185v-460h30v460h44c19 0 49 17 57 39 1 0 1 1 1 1l35 128 0 0 3 12c6 19 12 19 16 19h292c5 0 9-1 16-19l27-99c2-7 8-11 15-11h151c8 0 15-7 15-15v-592z m-370 534c-131 0-238-107-238-238 0-131 107-237 238-237 131 0 237 106 237 237 0 131-106 238-237 238z m0-445c-115 0-208 93-208 207 0 115 93 208 208 208s207-93 207-208c0-114-93-207-207-207z m0 385c-98 0-178-80-178-178s80-177 178-177 177 79 177 177-79 178-177 178z m0-326c-82 0-148 67-148 148 0 82 66 148 148 148s148-66 148-148c0-81-67-148-148-148z m-132 148h30c0 56 46 102 102 102v29c-73 0-132-58-132-131z m2 298h259c9 0 15 6 15 15v93c0 8-6 15-15 15h-259c-8 0-15-7-15-15v-93c0-9 7-15 15-15z m15 93h229v-63h-229v63z" horiz-adv-x="1000" />

<glyph glyph-name="card" unicode="&#xe81d;" d="M781 577h-109v-28h109v28z m159 0h-110v-28h110v28z m10 254h-606c-28 0-51-24-51-51v-277l-132-136c-15-15-26-34-32-55l-23-88-102-103c-5-5-5-13 0-18 2-3 6-4 9-4 4 0 7 1 9 4l106 105c1 2 2 4 3 6l24 91c4 17 13 32 25 44l212 218h236l0-21c0 0 1-22-19-43-25-26-71-40-134-40h-25c-4 0-7-1-10-3l-51-52c-5-5-5-14 0-19 36-36 36-95 0-131-5-5-5-13 0-18 5-5 13-5 18 0 34 34 43 83 28 126h228c29 0 54-25 54-55v-63c0-20-17-37-37-37h-162c-4 0-6 3-6 4-1 1-2 4 0 7l8 13c23 43 45 43 66 43h15c7 0 13 5 13 12 0 8-6 13-13 13h-15c-29 0-61-4-89-55l-8-13c-6-11-6-23 0-33 2-4 4-6 7-8-9-9-18-20-27-36l-8-13c-6-10-6-23 0-33 2-2 3-5 5-6-8-8-17-19-25-34l-8-13c-6-11-6-23 0-34 6-10 17-17 29-17h37l-2-3c-12-15-31-24-51-24h-117c-3 0-6-2-9-4l-88-84c-5-5-5-13 0-19 2-2 6-4 9-4 4 0 7 1 9 4l84 79h112c28 0 55 14 72 36l14 19h92c35 0 64 29 64 64v34c15 12 27 31 27 52v38c17 11 27 31 27 52v63c0 21-7 39-20 55h43c0-34 5-67 62-99l14-8c6-4 12-5 18-5 6 0 12 1 18 5 11 6 18 17 18 30v77h55c28 0 50 21 50 49v365c0 27-22 51-50 51z m-290-759c0-20-16-36-36-36h-162c-3 0-5 2-6 3 0 1-2 4 0 7l8 14c11 20 22 30 33 36h155c3 0 6 0 8 0v-24z m30 86c0-20-18-36-38-36h-162c-4 0-5 2-6 3-1 1-2 4 0 7l8 14c14 26 28 36 41 40h147c3 0 6 0 10 0v-28z m177 131c0-5-2-7-4-8-1-1-5-2-9 0l-15 9c-47 27-48 52-48 76h76v-77z m108 126c0-13-12-24-25-24h-529c-1 2-3 5-5 7l39 40h20c71 0 122 16 152 47 28 29 27 61 27 62v33c0 7-5 12-13 12h-254c-4 0-7-1-10-3l-57-59v97h655v-212z m0 240h-655v43h655v-43z m0 68h-655v57c0 13 11 23 24 23h606c13 0 25-10 25-23v-57z" horiz-adv-x="1000" />

<glyph glyph-name="finger" unicode="&#xe81e;" d="M793 820c-104 0-189-85-189-189 0-104 85-188 189-188 104 0 188 84 188 188 0 104-84 189-188 189z m0-347c-88 0-159 71-159 158 0 88 71 159 159 159 87 0 158-71 158-159 0-87-71-158-158-158z m0 292c-74 0-134-60-134-134 0-73 60-133 134-133s133 60 133 133c0 74-60 134-133 134z m0-236c-57 0-103 46-103 102 0 57 46 103 103 103 56 0 102-46 102-103 0-56-46-102-102-102z m14 176l-26 11-45-47 22-21 19 19v-77h-5v-31h41v31h-6v115z m-580 145h-32v-102h32v102z m-105-144l-88 51-15-27 88-50 15 26z m-15-111l-88-51 15-26 88 50-15 27z m296-51l-88 51-15-27 87-50 16 26z m0 186l-16 27-87-51 15-26 88 50z m162-671h-68c17 25 28 56 28 84l0 197-2 42c0 32-26 57-57 57-14 0-26-2-35-7-10 17-28 28-49 28-12 0-24-4-33-10-9 18-29 31-51 31-10 0-19-2-27-6 0 52 0 121 0 167 0 32-26 59-59 59-32 0-58-27-58-59l0-255c-14 11-31 18-50 18l-36 0 0-1-1 0-1-28 0 0v-56l0 0 1-12 0-111 112-138h-23v-53h-8v-156h458v156h-41v53z m-467 149v90l1 1-1 12v64h6c27 0 49-22 49-49l0-87 1-21 30 0 0 424c0 16 13 28 28 28 16 0 29-12 29-28l0-204c0-10-1-17-1-24v-13h1c1-10 3-10 6-13l25-17v53c0 15 11 27 26 27s26-12 26-27v-21h31c0 15 12 27 27 27s26-12 26-27v-10h32v0c0 5-1 16 26 16 15 0 26-12 26-28l2-42v-196c0-29-16-64-38-84h-238l-120 149z m437-202h-349v24h349v-24z m-219 644v-30l193 0-46-46 21-22 83 83-83 83-21-22 46-46-193 0z" horiz-adv-x="1000" />

<glyph glyph-name="hands" unicode="&#xe81f;" d="M457 10h-8v128c0 25-9 49-27 67l-169 168c-5 6-14 6-19 0-17-16-26-38-26-60l-24 24v90c0 44-35 81-79 84-13 10-30 16-48 16-8 0-14-6-14-14v-7c-10 3-19 5-30 5-7 0-13-6-13-13l0-245c0-3 1-7 4-9l207-208v-26h-17c-7 0-14-6-14-13v-109c0-8 7-15 14-15h263c8 0 14 7 14 15v109c0 7-6 13-14 13z m-387 488c8-1 14-4 19-8 2-2 4-4 6-5 12-10 20-26 20-43v-125c0-3 1-7 4-9l51-52c3-2 6-4 9-4 4 0 7 2 10 4 5 5 5 14-1 19l-47 48v119c0 11-2 21-5 30 13-11 22-27 22-45v-96c0-3 1-7 4-9l65-66c2-3 5-6 7-8l40-40-40 0c0-1-1-1-1-1-23 0-44 10-60 25l-75 75v120c0 25-10 47-28 62v9z m-43-239l0 224c25-6 43-29 43-56v-125c0-4 2-7 5-10l79-79c21-21 50-33 80-32l72 1c5 0 10 3 12 8s1 11-3 14l-53 54c-1 1-2 3-3 4l-12 12c-8 11-12 23-12 37 0 12 3 23 10 33l158-158c12-13 19-30 19-48v-128h-184v32c0 3-1 7-4 9l-207 208z m416-358h-236v82h236v-82z m-31 17c12 0 23 10 23 23 0 12-11 23-23 23-13 0-23-11-23-23 0-13 10-23 23-23z m0 26c2 0 3-1 3-3s-1-4-3-4c-2 0-4 1-4 4s2 3 4 3z m575 567c-11 0-20-2-30-5v7c0 8-6 14-14 14-18 0-34-6-48-16-44-3-79-40-79-84v-90l-24-24c0 23-10 44-26 60-5 6-14 6-19 0l-169-168c-17-18-27-42-27-67v-128h-8c-7 0-14-6-14-13v-109c0-8 7-15 14-15h263c7 0 14 7 14 15v109c0 7-7 13-14 13h-17v26l207 208c3 2 4 6 4 9v245c0 7-6 13-13 13z m-214-255l65 66c3 2 4 6 4 9v96c0 18 9 34 22 45-3-9-5-19-5-30v-119l-47-48c-6-5-6-14-1-19 3-2 6-4 10-4 3 0 7 2 9 4l51 52c3 2 4 6 4 9v125c0 17 8 33 20 43 2 1 4 3 5 5 6 4 12 7 20 8v-9c-18-15-28-37-28-62v-120l-75-75c-16-16-38-25-61-24l-40 0 40 40c3 2 5 5 7 8z m20-273v-82h-236v82h236z m180 276l-207-208c-3-2-4-6-4-9v-32h-184v128c0 18 7 35 19 48l159 158c6-10 9-21 9-33 0-14-4-26-12-37l-12-12c-1-1-2-3-3-4l-53-54c-4-3-5-9-3-14 2-5 7-8 12-8l72-1c30-1 59 11 80 32l79 79c3 3 5 6 5 10v125c0 27 17 50 43 56v-224z m-385-341c13 0 23 10 23 23 0 12-10 23-23 23-12 0-23-11-23-23 0-13 11-23 23-23z m0 26c3 0 4-1 4-3s-1-4-4-4c-2 0-3 1-3 4s1 3 3 3z m163 629c0 139-113 253-252 253-140 0-253-114-253-253s113-253 253-253c139 0 252 114 252 253z m-252-226c-125 0-226 102-226 226s101 226 226 226c124 0 226-101 226-226s-102-226-226-226z m40 241h-31v77h37c8 0 15-6 15-14h27c0 23-19 41-42 41h-37v47h-26v-47h-30c-30 0-54-24-54-53v-24c0-29 24-54 54-54h30v-76l-31 0c-12 0-22 10-22 21h-27c0-27 22-48 49-48l31 0v-49h26v49l30 0c30 0 54 24 54 53v24c0 30-24 53-53 53z m-57 0h-30c-15 0-26 12-26 27v24c0 14 11 26 26 26h30v-77z m83-77c0-14-12-26-27-26l-30 0v76h31c14 0 26-11 26-26v-24z" horiz-adv-x="1000" />

<glyph glyph-name="heart" unicode="&#xe820;" d="M915 715c-54 54-127 84-204 84-77 0-150-30-205-84l0 0c-1-2-3-4-6-7l-1-1-8 11h-2c-113 108-293 107-404-4-108-107-113-278-17-392-7-12-11-26-11-41 0-45 37-81 82-81 6 0 12 0 18 2-1-6-2-12-2-19 0-45 37-81 82-81 6 0 12 0 18 2-1-6-2-12-2-19 0-45 37-81 82-81 6 0 12 1 18 2-1-6-2-12-2-19 0-45 36-81 81-81 15 0 29 4 41 11 15-11 33-16 50-16 21 0 43 8 59 24 20 20 28 48 23 74 5-1 10-1 15-1 22 0 43 8 59 24 16 16 24 37 24 59 0 5 0 10-1 15 5-1 10-1 15-1 23 0 43 9 59 24 16 16 25 37 25 59 0 5-1 11-2 16 5-1 10-2 16-2 22 0 43 9 58 24 16 16 25 37 25 59 0 4-1 8-1 12l18 19c0 0 1 0 1 0l1 1 0 0c111 113 111 296-2 408m-139-478l0 0-68 67-20-20 70-71 0 1c19-22 18-54-2-74-11-11-24-16-39-16-14 0-28 5-38 16l0 0-68 67-20-20 68-68c10-10 15-24 15-38 0-15-5-28-15-38-11-11-24-16-39-16-13 0-25 5-35 13l0 0-70 71-21-21 68-67-1-1c22-21 22-56 0-77-17-17-44-20-65-8 11 14 18 31 18 50 0 45-37 82-82 82-6 0-12-1-18-2 1 6 2 12 2 18 0 45-37 82-81 82-7 0-13-1-19-2 1 6 2 12 2 18 0 45-36 82-81 82-7 0-13-1-19-3 1 6 2 13 2 19 0 45-36 82-81 82-20 0-38-7-52-19-38 47-58 104-58 165 0 70 27 135 76 184 51 51 118 76 184 76 66 0 132-24 183-74l3-6h1l2-2-257-257 36-36c22-22 50-34 81-34 30 0 58 12 80 34l100 100c11 11 26 17 46 17l92-1 197-196c10-11 16-24 16-39 0-14-6-28-16-38-21-21-56-21-77 0m-344-302c-29 0-52 23-52 52 0 7 1 13 3 19 2 5 4 9 8 13 2 4 6 7 10 10 9 7 20 11 31 11 29 0 53-24 53-53 0-12-4-23-11-31-3-4-6-8-10-11-4-3-8-5-13-7-6-2-12-3-19-3m-150 150c0 7 1 13 3 19 2 5 5 9 8 13 3 4 6 7 10 10 9 7 20 11 32 11 29 0 52-24 52-53 0-12-4-23-11-31-2-4-6-8-10-11-4-3-8-5-13-7-6-2-12-3-18-3-30 0-53 23-53 52m-45 46c-29 0-53 23-53 52 0 7 1 13 3 19 2 4 5 9 8 13 3 4 6 7 10 10 9 7 20 11 32 11 29 0 52-24 52-53 0-12-4-23-10-32-3-3-7-7-11-10-4-3-8-5-13-7-6-2-12-3-18-3m-151 150c0 7 1 13 4 19 1 4 4 9 7 13 3 4 6 7 10 10 9 7 20 11 32 11 29 0 52-24 52-53 0-12-4-23-10-32-3-3-7-7-11-10-4-3-8-5-13-7-6-2-12-4-18-4-29 0-53 24-53 53m813 49l-3 0-3-6-7-7c-3 6-8 12-13 17l-204 205-105 1c-27 0-50-9-67-26l-100-100c-16-16-37-25-59-25-23 0-44 9-60 25l-16 16 254 254v0c1 1 3 2 4 4l7 6c49 49 114 77 184 77s135-27 184-77c100-100 102-262 4-364" horiz-adv-x="1000" />

<glyph glyph-name="home" unicode="&#xe821;" d="M777 264h-271v-215h271v215z m-41-174h-189v133h189v-133z m121-137v330l28-27 65 87-445 445-148-148v44h-134v-179l-163-162 65-87 27 27v-330h-152v-41h1000v41h-143z m-595 690h54v-43l-54-55v98z m-133-325l-16 21 392 391 391-391-16-21-375 375-376-375z m105-365h-41v28h41v-28z m206 0h-165v270h165v-270z m376 0h-337v28h337v-28z m0 67h-337v244h-245v-244h-41v304l312 311 311-311v-304z" horiz-adv-x="1000" />

<glyph glyph-name="lock" unicode="&#xe822;" d="M760 512v111c0 125-102 227-227 227h-66c-125 0-227-102-227-227v-111h-95v-662h711v662h-96z m-488 111c0 109 87 196 195 196h66c108 0 196-87 196-196v-111h-53v111c0 79-65 143-143 143h-66c-78 0-143-64-143-143v-111h-52v111z m373 0v-111h-289v111c0 62 49 112 111 112h66c62 0 112-50 112-112z m179-742h-648v37h648v-37z m0 393h-72v-31h72v-37h-72v-32h72v-37h-72v-31h72v-156h-648v156h62v31h-62v37h62v32h-62v37h62v31h-62v137h648v-137z m0 166h-648v43h648v-43z m-371-233l-14-156h122l-14 156c18 14 28 35 28 59 0 41-34 75-75 75-41 0-75-34-75-76 0-23 10-44 28-58z m47 103c25 0 45-20 45-44 0-16-8-30-22-39l-8-4 13-141h-56l13 141-8 4c-13 9-22 23-22 39 0 24 20 44 45 44z" horiz-adv-x="1000" />

<glyph glyph-name="pig" unicode="&#xe823;" d="M212 234c-4 2-13-7-19-21-7-13-8-26-4-27 4-2 12 7 19 20 6 14 8 26 4 28z m237 67h-105c-8 0-14-6-14-13 0-8 6-14 14-14h105c7 0 14 6 14 14 0 7-7 13-14 13z m287 307c-79 0-185-13-185-128v-160c-16 9-34 16-53 20-3 1-5 1-8 2l-1 0c-24 4-52 6-85 6-41 0-74-3-76-3-3-1-6-1-8-1-8-2-17-3-25-5-11 4-19 7-23 8-1 1-3 1-4 2-10 4-23 8-35 8-10 0-19-2-26-7-20-13-21-38-16-55l2-12c-22-22-41-47-54-76-5-7-12-8-15-9l-18 0c-15 0-28-12-28-27v-74c0-9 4-16 10-22 5-3 11-5 17-6 2-1 6-4 11-12 8-13 15-26 19-34 17-44 48-81 86-108 0-2-1-4-1-5-2-5-4-8-5-8-11-5-18-17-16-30 3-13 14-22 27-22h93c13 0 29 8 37 23h88c2 0 3 1 5 1 1-5 2-9 5-13 5-7 13-11 22-11h93c11 0 21 7 25 17l14 33c0 1 0 1 0 1 1 2 8 21 5 44 5 5 8 10 14 15v-106h221v351c41 7 74 44 74 88v187c0 115-106 128-186 128z m-109-600c-12-20-26-38-43-54 0-2 0-3 1-5 4-21-2-38-2-38l-14-34h-93l9 28c-13-3-27-4-41-4h-89c-6 0-12 0-18 1-1-4-3-8-4-13-3-12-14-12-14-12h-93c0 0 13 5 20 24 3 10 3 22 2 30-40 23-71 60-88 103-4 8-12 23-21 37-14 24-27 26-32 26-1 0-1 0-1 0v73h19c0 0 1 1 2 1 6 0 24 4 36 23 10 23 25 44 43 62 4-11 10-26 12-32 3-5 8-9 13-9 2 0 3 1 5 1 7 3 10 11 8 18-4 10-20 49-20 49l-7 18c0 0-6 19 5 26 3 2 7 3 11 3 9 0 21-5 30-8 6-2 18-7 31-12 9 3 20 5 30 7 2 0 5 0 7 1 0 0 33 3 73 3 26 0 55-1 80-6 3 0 6-1 8-2 22-5 42-13 60-24 2-42 34-77 75-84v-197z m268 285c0-30-22-54-49-60v252h-28l2-606h-68v373l-29 1v-374h-69l-2 606h-27v-252c-6 2-13 5-19 9-8 5-15 12-20 21-5 9-8 19-8 30v187c0 71 48 101 158 101 111 0 159-30 159-101v-187z m-158 339c60 0 109 49 109 109 0 60-49 109-109 109s-110-49-110-109c0-60 49-109 110-109z m0 191c45 0 82-37 82-82 0-45-37-82-82-82-46 0-82 37-82 82 0 45 36 82 82 82z" horiz-adv-x="1000" />

<glyph glyph-name="plane" unicode="&#xe824;" d="M980 830c-12 13-31 20-53 20-36 0-80-18-105-43l-165-165-518 157-113-113 435-240-185-185-174 52-102-102 209-116-34-34 36-36 34 34 116-209 102 102-52 174 185 185 240-435 113 113-157 518 165 165c32 32 65 117 23 158z m-869-132l43 43 462-140-118-118-387 215z m780-694l-43-44-215 388 118 118 140-462z m30 704l-568-568 53-173-33-33-90 163 79 78-37 37-78-79-163 90 33 33 173-53 568 568c14 13 45 28 69 28 8 0 14-2 17-5 13-12-1-64-23-86z m-60 60l57-57c16 16 16 41 0 57-16 16-41 16-57 0z m-703-415l132 132-36 36-132-132 36-36z m-64 150l36-36 66 66-36 36-66-66z m541-363l-132-132 36-36 132 132-36 36z m-18-160l36-36 66 66-36 36-66-66z" horiz-adv-x="1000" />

<glyph glyph-name="science" unicode="&#xe825;" d="M947 249c0 41-33 74-74 74-14 0-26-4-37-10-13 12-26 25-40 37 24 21 46 43 65 64 69 77 93 143 68 186-35 60-150 54-283 10-29 137-81 240-150 240-22 0-54-11-86-61-5 1-10 2-15 2-41 0-74-33-74-74 0-26 14-50 35-63-4-14-7-29-10-44-31 10-60 18-88 24-101 21-170 9-195-34-25-43-1-109 68-186 19-21 41-43 64-64-23-21-45-43-64-64-69-77-93-143-68-186 12-21 35-35 67-41 6-35 36-61 73-61 40 0 73 32 74 72 22 5 45 12 69 20 29-138 80-240 150-240 69 0 121 103 150 241 66-22 127-35 176-35 51 0 89 13 107 44 14 25 13 57-5 96 14 13 23 32 23 53z m-794 184c-58 65-82 122-64 152 17 30 78 38 163 20 28-6 58-14 88-24-7-41-12-86-16-132-38-26-74-52-106-79-24 21-46 42-65 63z m169-145c-29 20-56 41-81 62 25 21 52 42 81 62-1-20-1-41-1-62 0-21 1-41 1-62z m-119-261c-25 0-45 20-45 45 0 24 20 44 45 44s44-20 44-44c0-25-20-45-44-45z m68 72c-11 27-37 47-68 47-35 0-64-25-72-57-21 5-35 13-42 26-18 30 6 87 64 152 19 21 41 42 65 64 32-28 68-54 107-80 3-46 8-90 16-132-24-8-47-15-70-20z m365 370c-17 11-35 22-53 32-18 11-36 21-54 30 33 16 64 29 94 40 6-32 10-66 13-102z m-140 351c45 0 94-83 122-220-40-15-81-32-122-52-41 20-83 38-122 53 3 15 6 29 10 43 3-1 7-1 11-1 41 0 74 33 74 74 0 25-13 47-31 60 14 22 34 43 58 43z m-145-103c0 24 19 44 44 44 24 0 44-20 44-44 0-24-20-44-44-44-25 0-44 20-44 44z m17-146c31-11 63-25 95-40-18-9-37-19-55-30-18-10-35-21-52-32 3 36 7 70 12 102z m-12-340c17-11 34-22 52-32 18-11 37-21 55-30-32-15-64-29-94-40-6 32-10 66-13 102z m140-351c-45 0-94 83-122 220 40 14 81 32 122 52 41-20 82-37 122-52-28-137-77-220-122-220z m127 249c-30 11-61 24-94 40 18 9 36 19 54 30 18 10 36 21 53 32-3-36-7-70-13-102z m16 138c-23-14-46-29-70-43-25-14-49-27-73-39-24 12-48 25-73 39-24 14-47 29-70 43-2 27-2 55-2 83 0 28 0 56 2 83 23 14 46 29 70 43 25 14 49 27 73 39 24-12 48-25 73-39 24-14 47-29 70-43 1-27 2-55 2-83 0-28-1-56-2-83z m264 318c18-30-6-87-64-152-19-21-41-42-65-64-32 28-68 54-107 80-3 46-8 90-16 132 133 44 230 44 252 4z m-234-173c30-20 57-41 82-62-25-21-52-42-82-62 1 21 2 41 2 62 0 21-1 41-2 62z m234-297c-22-39-119-40-252 5 8 41 13 86 16 131 39 26 75 52 107 80 14-13 27-25 40-38-10-12-15-27-15-44 0-41 33-74 74-74 9 0 17 2 26 5 9-21 15-47 4-65z m-30 90c-25 0-45 20-45 44 0 25 20 44 45 44 24 0 44-19 44-44 0-24-20-44-44-44z m-373 231c-48 0-86-38-86-86 0-47 38-86 86-86 48 0 86 39 86 86 0 48-38 86-86 86z m0-143c-31 0-57 26-57 57 0 31 26 57 57 57 31 0 57-26 57-57 0-31-26-57-57-57z" horiz-adv-x="1000" />

<glyph glyph-name="search-1" unicode="&#xe826;" d="M369 773c-165 0-298-134-298-298 0-164 133-298 298-298 164 0 298 134 298 298 0 164-134 298-298 298z m0-567c-148 0-269 121-269 269 0 148 121 269 269 269 148 0 269-121 269-269 0-148-121-269-269-269z m627-215l-262 262c-6 6-15 6-21 0l-8-8-28 28c38 58 61 127 61 202 0 203-166 369-369 369-203 0-369-166-369-369 0-203 166-369 369-369 80 0 155 26 216 70l25-25-7-8c-6-6-6-15 0-21l262-262c3-2 6-4 10-4s8 2 10 4l111 111c3 2 4 6 4 10 0 4-1 8-4 10z m-627 144c-187 0-340 153-340 340 0 187 153 340 340 340 187 0 340-153 340-340 0-187-153-340-340-340z m239 59c19 17 36 35 52 55l24-25-53-53-23 23z m26-61l90 89 19-19-90-90-19 20z m40-40l90 89 164-164-89-90-165 165z m201-202l-16 16 90 90 16-16-90-90z m-452 598h-40v97h48c11 0 20-7 20-19h29c0 27-22 49-49 49h-48v58h-27v-58h-40c-35 0-64-29-64-64v-29c0-35 29-64 64-64h40v-98l-41-1c-16 0-29 13-29 29h-29c0-31 26-58 58-58l41 0v-61h27v62l39 0c35 0 64 28 64 63v30c0 35-28 64-63 64z m-67 0h-40c-19 0-35 15-35 34v29c0 19 16 34 35 34h40v-97z m101-94c0-19-16-34-35-34l-39 0v98h40c19 0 34-15 34-34v-30z" horiz-adv-x="1000" />

<glyph glyph-name="seo-monitoring" unicode="&#xe827;" d="M44 658h28v-27h-28v27z m48 0h27v-27h-27v27z m47 0h28v-27h-28v27z m853 34c-4 2-10 1-14-2l-78-67v76h-900v-111-585h108 105 687v422l23 31h61c8 0 13 6 14 13l2 210c0 6-3 10-8 13z m-965-19h846v-58h-846v58z m0-85h832l-128-108c-4-4-6-10-4-15 2-5 7-9 12-9h45l-161-220-123 167c-3 3-7 5-11 5h-105c-5 0-9-2-11-5l0 0 0 0c0 0 0 0 0 0l-272-373h-74v558z m541-426l-158 220h72l124-168-38-52z m-434-132l250 342 37-52-215-290h-72z m739 0h-634l199 268 120-166 0 0c2-3 6-6 10-6h106c4 0 8 2 10 6l189 257 0-359 0 0z m98 453h-55c-4 0-8-2-11-6l-238-324h-72l226 309c3 4 4 9 1 13-2 5-7 8-12 8h-34l197 168-2-168z" horiz-adv-x="1000" />

<glyph glyph-name="share" unicode="&#xe828;" d="M275 608c-80 0-186-13-186-130v-187c0-44 32-81 75-88v-353h223v353c42 7 75 44 75 88v187c0 117-107 130-187 130m157-317c0-28-19-52-46-58v250h-29l0-278h0v-325h-66v373h-15c0 0 0 0-1 0l-16 0v-373h-66v351h0v252h-30v-250c-25 7-44 30-44 58v187c0 72 45 101 156 101 112 0 157-29 157-101v-187z m-157 338c61 0 111 50 111 111 0 60-50 110-111 110-61 0-110-50-110-110 0-61 49-111 110-111m0 191c45 0 81-36 81-80 0-45-36-81-81-81s-80 36-80 81c0 44 36 80 80 80m489-482c7-33 37-59 73-59h0c41 0 74 33 74 74 0 41-33 75-74 75h0c-36 0-66-26-73-60h-98v269c0 29 23 52 52 52h46c7-34 37-60 73-60h0c41 0 74 34 74 75 0 41-33 74-74 74h0c-36 0-66-26-73-60h-46c-45 0-81-36-81-81v-269h-138v-30h138v-269c0-45 36-81 81-81h46c7-34 37-59 73-60h0c41 1 74 34 74 75 0 41-33 74-74 74h0c-36 0-66-25-73-59h-46c-29 0-52 23-52 51v269h98z m73 60c24 0 44-20 44-45 0-24-19-44-44-45-25 1-45 21-45 45 0 25 20 45 45 45m0 350c24 0 44-20 44-44 0-25-19-45-44-45-25 0-45 20-45 45 0 24 20 44 45 44m0-700c24 0 44-20 44-45 0-25-19-45-44-45-25 0-45 20-45 45 0 25 20 45 45 45" horiz-adv-x="1000" />

<glyph glyph-name="stairs" unicode="&#xe829;" d="M148 366l21 76c11 37 39 69 76 83l86 35c-24-39-38-83-41-128l-7-79c0 0 0 0 0-1v-187c0-21-5-42-16-60l-98-162c-1-3-2-7-1-11 1-3 3-6 6-8l64-38c2-2 4-2 7-2 4 0 9 2 12 6l97 163c20 34 31 72 31 112v138l80 3c10-2 17-7 22-15 5-8 6-17 4-26l-30-146c-1-4 0-8 2-11 2-3 5-5 9-6l72-14c4-1 8 0 11 2 3 2 5 5 6 8l30 148c7 36 0 73-20 103-21 31-55 52-93 58l-20 3c3 11 7 28 13 45 5 15 13 30 19 42l14-27c32-62 108-89 172-60l95 39c7 3 10 11 7 18l-28 68c-1 4-4 6-7 8-4 1-7 1-11 0l-95-40-1 0c-16-7-34-1-42 14l-44 84c-8 15-21 28-37 34h0l-95 40c-23 10-48 10-70 1l-141-57c-66-26-116-82-135-150l-21-75c-1-4-1-7 1-10 2-4 5-6 8-7l71-20c8-2 15 2 17 9z m-67 34l17 62c17 59 61 109 119 132l141 57c16 6 33 6 49-1l95-40c10-4 19-12 24-22l44-84c14-28 48-39 77-27l83 35 18-43-82-34c-52-23-112-2-138 48l-25 49c-3 4-7 7-12 7-5 0-10-2-12-6-1-1-21-34-34-69-11-32-16-61-16-63-1-7 4-14 11-15l33-6c31-5 58-22 75-46 16-24 22-54 16-82l-27-135-46 10 27 132c3 17 1 33-7 46-9 15-25 26-42 29-1 0-2 0-3 0l-95-4c-8 0-14-6-14-14v-151c0-35-9-68-27-98l-90-151-40 24 90 151c14 22 21 48 21 74v187l6 78c3 41 16 81 37 116l21 35c3 5 3 11-1 16-4 4-10 6-15 4l-125-50c-44-18-78-56-91-102l-17-62-45 13z m421 255c54 0 97 44 97 98 0 53-43 97-97 97-54 0-97-44-97-97 0-54 43-98 97-98z m0 168c39 0 70-32 70-70 0-39-31-70-70-70-39 0-70 31-70 70 0 38 31 70 70 70z m434-526c-8 0-14-6-14-14v-128h-262c-7 0-13-5-13-13v-124h-253c-8 0-13-5-13-13v-128h-260c-7 0-14-6-14-13 0-8 7-14 14-14h273c8 0 14 6 14 14v127h252c8 0 14 7 14 14v122h262c8 0 13 7 13 15v141c0 8-6 14-13 14z" horiz-adv-x="1000" />

<glyph glyph-name="study" unicode="&#xe82a;" d="M310 224c-1 0-2-1-1-1 0 0 0 0 0 0 0 0 1 1 1 1 0 0 0 0 0 0z m681 212l-488 183c-3 1-7 1-10 0l-484-192c-6-3-9-8-9-14 0-5 4-10 9-12l219-82c0-18 0-25 0-32 1-8 1-16 1-37 1-51 30-84 105-121 0 0 0-1 0-1 0 0 0 0 0 0 1 0 1 0 1 1 4-2 8-4 12-6 16-7 33-14 48-21l0 0c2-1 50-22 107-22 45 0 85 16 103 23 1 0 3 0 4 1 16 6 33 14 50 22 84 41 116 76 115 129 0 22 0 29 0 36-1 7-1 14-1 32l19 8 1-98c-15-6-25-21-25-38v-62h84v62c0 19-13 35-31 40l-1 107 171 68c6 2 9 7 9 13 0 6-4 11-9 13z m-573-313c0 0 0 0 0 0l-6 3c0 0 0 0 0 0-18 6-35 14-54 22-84 39-101 67-101 102 0 22-1 30-1 37 0 6 0 11 0 21l230-86 3-113c-30 2-57 9-71 14z m229 28c-14-7-28-13-42-19-3 0-6-2-10-3-14-6-44-17-78-20l-3 112 231 91c1-11 1-16 1-21 0-8 0-15 0-36 1-35-16-63-99-104z m177 44v-34h-27v34c0 8 6 14 14 14 7 0 13-6 13-14z m-22 170l-239 89c3 5 4 9 4 15 0 23-28 40-66 40l-2 0c-16 0-31-4-43-10-15-8-23-19-23-32 0-23 28-40 66-40l1 0c14 0 27 3 38 7l225-85-261-103-449 168 445 177 449-168-145-58z m-263 103c0-2-12-13-39-13l-1 0c-26 0-38 10-38 13 0 3 14 13 40 13 25 0 38-10 38-13z" horiz-adv-x="1000" />

<glyph glyph-name="time" unicode="&#xe82b;" d="M416 729h-23v-66h23v66z m-23-703h23v66h-23v-66z m-175 650l33-57 21 12-33 58-21-13z m319-552l33-57 21 12-33 57-21-12z m-443 419l57-33 12 21-57 33-12-21z m552-319l57-33 12 21-57 33-12-21z m-527 165h-66v-23h66v23z m-25-177l12-21 57 33-12 21-57-33z m621 331l-12 21-57-33 12-21 57 33z m-497-464l21-12 33 57-21 12-33-57z m373 597l-21 13-33-58 21-12 33 57z m-173-251v212h-25v-214c-20-6-33-24-33-45 0-27 22-49 49-49 22 0 41 15 47 37h138v23h-138c-5 20-20 33-38 36z m11-60c-4-7-11-11-20-11-13 0-24 11-24 24 0 7 3 13 8 17 4 4 10 7 16 7 3 0 6-1 8-2 5-2 10-5 12-10 2-4 4-8 4-12 0-5-2-9-4-13z m416 188c-24 0-50-1-74-7-65 138-205 234-367 234-223 0-404-182-404-405 0-223 182-404 405-404 147 0 277 79 347 197v-248h186v295c35 6 62 36 62 74v156c0 97-89 108-155 108z m-441-557c-209 0-379 170-379 379 0 210 170 380 379 380 152 0 283-89 344-217-34-14-58-42-58-93v-156c0-36 25-67 59-74-61-129-192-219-345-219z m571 293c0-24-16-44-37-49v210h-26v-233l0 0v-271h-55v310h-12c0 0 0 0 0 0l-13 0v-310h-57v293l0 0v211h-23v-210c-21 6-39 25-39 49v156c0 35 14 58 44 70 7 3 15 6 24 8 17 4 38 6 63 6 93 0 131-25 131-84v-156z m-130 282c50 0 92 41 92 92 0 51-42 92-92 92-51 0-93-41-93-92 0-51 42-92 93-92z m0 159c37 0 67-30 67-67 0-37-30-68-67-68-38 0-68 31-68 68 0 37 30 67 68 67z" horiz-adv-x="1000" />

<glyph glyph-name="tools" unicode="&#xe82c;" d="M548 142l0 419c52 27 86 80 86 140 0 38-14 75-40 103l-25 29 0-114-72-42-72 42 0 131-21-11c-51-27-83-80-83-138 0-59 33-113 86-140l0-419c-53-27-86-80-86-140 0-49 22-94 61-124l23-17 0 128 57 33 57-33 0-139 20 8c57 25 95 82 95 144 0 60-34 113-86 140z m-1-247l0 111-85 49-85-49 0-83c-18 23-28 50-28 79 0 51 31 98 78 118l8 4 0 456-8 3c-47 21-78 67-78 118 0 39 18 75 47 99l0-98 101-58 101 58 0 41c5-14 7-28 7-42 0-51-30-97-77-118l-9-3 0-457 9-3c47-20 77-67 77-118 0-43-22-83-58-107z m340 304c0 11-5 21-11 29 7 11 12 24 12 36l0 17c0 11 0 17 0 20l0 0 0 2c0 5 0 26 0 33 0 29-28 29-37 29l-7 1h-16l1 311 26 33-29 130h-71l-28-130 27-33v-311h-16l-2-1-6 0c-8 0-21 0-29-8-5-5-8-12-8-21l0-33 0-22 0-17c0-12 5-25 12-35-8-9-13-20-13-31l2-258c0-21 15-49 40-57 18-6 37-10 57-10 0 0 0 0 0 0 20 0 40 4 59 11 24 8 39 36 38 57l-1 258z m-109 612h25l21-95-23-29-2-322-18 0v322l-24 30 21 94z m-56-508l1 33v0c0 1 4 1 7 1l6 0 2 0 106 0 7 0c4 0 6-1 8-1v0c0-7 0-29 0-33h0c0-4 0-9 0-22l0-17c0-8-5-19-11-25h-115c-6 6-11 16-11 25l0 17 0 22z m118-392c-16-6-32-8-49-8h0c-17 0-33 2-48 7-11 4-20 20-20 30l-2 257c0 5 2 10 6 12h126c3-2 5-6 5-11l2-257c0-11-9-26-20-30z m-9 274c-8 0-15-6-15-14v-222c0-8 7-15 15-15 8 0 15 7 15 15v222c0 8-7 14-15 14z m-41 0c-8 0-15-6-15-14v-222c0-8 7-15 15-15s15 7 15 15v222c0 8-7 14-15 14z m-40 0c-8 0-14-6-14-14l0-222c0-8 6-15 14-15s14 7 14 15l0 222c0 8-6 14-14 14z m-299-56h28v442h-28v-442z m-162 436h-118l-59-103 59-102h118l59 102-59 103z m-16-176h-86l-42 73 42 74h86l42-74-42-73z m-43 123c-28 0-50-23-50-50 0-27 22-50 50-50 27 0 50 23 50 50 0 27-23 50-50 50z m0-71c-12 0-21 9-21 21 0 12 9 21 21 21 12 0 21-9 21-21 0-12-9-21-21-21z" horiz-adv-x="1000" />

<glyph glyph-name="university" unicode="&#xe82d;" d="M742-13h-484v-32h484v32z m0-39h-484v-30h484v30z m-226 750v2h68v-10h139l-25 58 25 57h-98v10h-109v12h-32v-129l-485-317 9-27h10v-51h54v-49h10l-11-172h-18v-58h-35v-151h964v151h-35v58h-18l-11 172h10v49h54v51h10l9 27-485 317z m109 78h53l-13-28 13-29h-53v57z m-109 10h68v-57h-68v57z m-16-113l443-290h-886l443 290z m453-679v-89h-906v89h906z m-841 260h73l12-172h-96l11 172z m-10 30v19h95v-19h-95z m113-231v-29h-133v29h133z m102 201l-12-172h-18v-58h-43v58h-18l-11 172h12v49h80v-49h10z m29 0h74l11-172h-96l11 172z m-10 30v19h94v-19h-94z m113-231v-29h-133v29h133z m102 201l-11-172h-18v-58h-43v58h-19l-11 172h12v49h78v-49h12z m29 0h74l11-172h-96l11 172z m-12 30v19h96v-19h-96z m116-231v-29h-133v29h133z m101 201l-11-172h-18v-58h-43v58h-18l-12 172h10v49h80v-49h12z m30 0h73l11-172h-96l12 172z m-12 30v19h95v-19h-95z m115-231v-29h-133v29h133z m35 279h-906v22h906v-22z m-453 311l-361-236h722l-361 236z m0-35l263-172h-526l263 172z" horiz-adv-x="1000" />

<glyph glyph-name="people" unicode="&#xe82e;" d="M776 326c-82 0-154-44-193-110l-71 71v87 0c1 0 2 0 3 0 2 0 3 0 4 1 5 0 9 0 14 1 0 0 1 0 1 0 5 1 10 2 14 3 2 0 3 1 5 1 4 1 8 2 12 3 1 1 2 1 4 1 4 2 7 3 11 4 2 1 3 2 5 2 4 2 8 4 12 5 1 1 2 2 4 3 2 1 4 2 6 3v0 0l20 12 6 4 0 0v0c1 1 2 2 2 2 2 2 5 3 7 5 0 1 1 2 2 2 8 7 15 13 21 20 0 1 1 1 1 1 2 2 4 5 6 7 0 1 1 2 2 3 2 2 3 4 5 6 1 1 2 2 3 4 1 1 2 3 4 5 1 3 3 6 5 8 1 2 1 3 2 4 2 3 3 6 5 9 1 1 1 2 2 3 1 3 2 5 4 8 0 1 1 2 1 3 2 3 3 7 4 10 0 1 1 1 1 2 3 8 6 16 8 25 0 0 0 0 0 0 1 4 2 8 2 12 1 1 1 2 1 3 0 3 1 6 1 10 0 1 1 2 1 3 0 3 0 6 1 10 0 1 0 2 0 3 0 4 0 9 0 13 0 124-100 224-224 224-124 0-224-100-224-224 0-4 0-9 0-13 0-1 0-2 0-3 1-4 1-7 1-10 0-1 1-2 1-3 0-4 1-7 1-10 0-1 1-2 1-3 1-4 1-8 2-12 0 0 0 0 0 0 3-9 5-17 8-25 1-1 1-1 1-2 1-3 3-7 4-10 0-1 1-2 1-3 2-3 3-5 4-8 1-1 2-2 2-3 2-3 3-6 5-9 1-1 1-2 2-4 2-2 4-5 6-8 1-2 2-4 3-5 1-2 2-3 3-4 2-2 3-4 5-6 1-1 2-2 3-3 1-2 3-5 5-7 0 0 1 0 1-1 7-7 13-13 21-20 1 0 2-1 3-2 2-2 4-3 6-5 1 0 1-1 2-2v0 0l6-4 20-12v0 0c2-1 4-2 6-3 2-1 3-2 5-3 3-1 7-3 11-5 2 0 3-1 5-2 4-1 8-2 11-4 2 0 3 0 4-1 4-1 8-2 12-3 2 0 3-1 5-1 4-1 9-2 14-3 0 0 1 0 1 0 5-1 9-1 14-1 1-1 3-1 4-1 0 0 0 0 1 0v0-90l-67-67v0l0 0c-1 1-1 2-2 3-1 2-2 4-4 6-1 2-2 3-3 5-2 3-4 6-7 9-1 2-2 3-3 5-2 2-3 4-5 6-1 1-2 2-3 4-6 6-13 13-19 19-1 0-1 0-1 0-33 29-73 48-117 54-1 0-1 0-2 0-4 1-8 1-12 1-1 0-2 0-3 0-4 1-9 1-14 1-123 0-224-101-224-224 0-5 0-9 0-13 1-1 1-2 1-4 0-3 0-6 1-9 0-1 0-3 0-4 0-3 1-6 2-9 0-1 0-2 0-3 1-4 2-8 3-12 0 0 0 0 0 0 2-9 4-17 8-26 0 0 0-1 0-1 1-4 3-7 4-10 1-1 1-2 2-3 1-3 2-6 4-8 0-1 1-3 1-4 2-3 4-5 5-8 1-1 2-3 3-4 1-3 3-6 5-8 1-2 2-4 4-6 1-1 2-2 3-4 1-2 3-4 4-6 1-1 2-2 3-3 2-2 3-4 5-6 1 0 1-1 1-1 7-7 14-14 21-20 1-1 2-1 3-2 2-2 4-4 6-5 1-1 2-1 2-2v0l0 0 6-4 21-12 0 0 0 0c1-1 3-3 5-3 2-1 4-2 5-3 4-2 8-3 11-5 2-1 4-1 6-2 3-1 7-3 10-4 2 0 3-1 5-1 4-1 8-2 12-3 1-1 3-1 4-1 5-1 9-2 14-3 1 0 1 0 1 0 5-1 10-1 14-2 2 0 3 0 4 0 5 0 10-1 15-1 5 0 10 1 15 1 2 0 3 0 4 0 5 1 10 1 14 2 1 0 1 0 1 0 5 1 10 2 15 3 1 0 3 0 4 1 4 1 8 2 12 3 1 0 3 1 4 1 4 1 8 3 11 4 2 1 4 1 5 2 4 2 8 3 11 5 2 1 4 2 6 3 1 1 3 2 5 3v-1 1l21 12 5 4v0 0c1 1 2 1 2 2 3 1 5 3 7 5 1 1 2 1 2 2 8 6 15 13 22 20 0 0 0 1 0 1 2 2 4 4 6 6 1 1 1 2 2 3 2 2 3 4 5 6 1 2 2 3 3 4 1 2 3 4 4 6 2 2 3 5 5 8 1 1 2 3 2 4 2 3 4 5 5 8 1 1 1 3 2 4 1 2 3 5 4 8 0 1 1 2 1 3 2 3 3 6 4 10 1 0 1 1 1 1 3 9 6 17 8 25 0 1 0 1 0 1 1 4 2 8 3 12 0 1 0 2 0 2 1 4 1 7 2 10 0 1 0 3 0 4 0 3 1 6 1 9 0 2 0 3 0 4 0 4 1 8 1 13 0 4-1 7-1 11 0 1 0 1 0 1-1 26-7 51-17 74l0 1 69 69 70-70c-12-28-18-58-18-90 0-4 0-8 0-13 0-1 0-2 0-3 0-3 1-7 1-10 0-1 0-2 1-3 0-3 0-7 1-10 0-1 0-2 1-3 0-4 1-8 2-11 0-1 0-1 0-1 2-9 5-17 8-25 0-1 0-1 1-2 1-3 2-6 4-10 0-1 1-1 1-2 1-3 3-6 4-9 1-1 1-2 2-3 1-3 3-6 5-9 0-1 1-2 2-4 2-2 3-5 5-8 2-2 3-3 4-5 1-2 2-3 3-4 2-2 3-4 5-6 1-1 1-2 2-3 2-2 4-4 6-6 0-1 0-1 1-1 6-8 13-14 21-21 1 0 1-1 2-2 2-1 5-3 7-5 0 0 1-1 2-1v0 0l6-5 20-12 0 0v0c2-1 4-2 6-3 1-1 3-2 5-3 3-1 7-3 11-4 2-1 3-2 5-2 4-2 7-3 11-4 1-1 3-1 4-2 4-1 8-2 12-3 2 0 3-1 5-1 4-1 9-2 14-3 0 0 1 0 1 0 5 0 9-1 14-1 1 0 2-1 4-1 5 0 10 0 15 0s10 0 15 0c1 0 3 1 4 1 4 0 9 1 14 1 0 0 0 0 1 0 5 1 9 2 14 3 2 0 3 1 5 1 4 1 7 2 11 3 2 1 3 1 5 2 3 1 7 2 11 4 1 0 3 1 5 2 3 1 7 3 11 4 1 1 3 2 5 3 2 1 4 2 6 3v0 0l20 12 6 5v0 0c0 0 1 1 2 1 2 2 4 4 6 5 1 1 2 2 3 2 7 7 14 13 21 21 0 0 1 0 1 1 2 2 4 4 5 6 1 1 2 2 3 3 1 2 3 4 4 6 1 1 2 2 3 4 2 2 3 3 4 5 2 3 4 6 6 8 0 2 1 3 2 4 2 3 3 6 5 9 0 1 1 2 1 3 2 3 3 6 4 9 1 1 1 1 2 2 1 4 3 7 4 10 0 1 0 1 1 2 3 8 5 16 7 25 0 0 0 0 1 1 0 3 1 7 2 11 0 1 0 2 1 3 0 3 1 7 1 10 0 1 0 2 0 3 1 3 1 7 1 10 0 1 1 2 1 3 0 5 0 9 0 13 0 124-101 224-224 224m-429 146c0 0 0 0 0 0-1 2-3 4-5 6 0 1-1 1-1 2-1 2-3 4-4 5-1 1-1 2-2 3-1 2-2 4-3 5-1 1-2 3-2 4-1 1-2 3-3 4-1 2-2 4-2 5-1 1-2 2-2 4-1 2-2 4-3 6-1 1-1 2-1 2-1 3-2 5-3 8-1 0-1 1-1 2-1 2-2 5-3 8 0 0 0 0 0 1-1 3-2 6-3 9 0 0 0 0 0 1-1 3-2 6-2 9-1 0-1 0-1 1 0 3-1 6-1 9 0 0-1 1-1 1 0 3 0 6-1 9 0 0 0 1 0 1 0 3 0 6-1 9 0 0 0 1 0 1 0 4 0 7 0 11 0 109 89 198 198 198 109 0 198-89 198-198 0-4 0-7 0-11 0 0 0 0 0-1 0-3-1-6-1-9 0 0 0-1 0-1 0-3-1-6-1-9 0 0 0-1 0-1-1-3-2-6-2-9 0-1 0-1 0-1-1-3-2-6-3-9 0-1 0-1 0-1-1-3-2-6-2-9-1-1-1-1-1-1-1-3-2-6-3-9 0 0 0-1-1-1 0-3-2-5-3-8 0 0 0-1-1-2-1-2-2-4-3-6 0-2-1-3-1-4-1-1-2-3-3-5-1-1-2-3-2-4-1-1-2-3-3-4-1-2-2-3-3-5-1-1-1-2-2-3-1-1-3-3-4-5 0-1-1-1-1-2-2-2-3-4-5-6 0 0 0 0 0 0-6-8-13-15-20-21v0 25c0 4 0 7-1 11 0 1 0 2 0 3 0 2 0 5-1 7 0 1 0 2 0 2-1 3-2 6-3 9 0 0 0 1 0 2-1 2-2 4-3 6 0 1 0 1 0 2-2 2-3 5-4 7 0 0 0 0 0 0-2 2-3 4-5 6 0 1 0 2-1 2-1 2-2 3-4 4 0 1-1 1-1 2-2 2-3 3-5 5-1 0-1 0-1 1-2 1-4 2-5 3-1 1-1 1-2 1-2 1-4 3-5 4-1 0-1 0-1 0-2 1-4 2-7 3 0 1-1 1-1 1-2 1-4 2-6 2 0 0-1 1-1 1-3 1-5 1-7 2-1 0-1 0-1 0-2 1-4 2-6 2-1 0-1 0-2 0-2 1-4 1-6 2 0 0-1 0-1 0-2 0-5 1-7 1 0 0 0 0-1 0 1 1 1 1 2 1 2 2 3 3 5 4 1 1 1 2 2 2 2 2 3 3 4 5 1 0 2 1 2 2 2 1 3 3 4 5 1 0 1 1 2 2 1 2 3 5 4 7 1 1 1 1 1 1 1 3 2 5 3 7 0 1 1 2 1 3 1 2 1 4 2 6 0 1 1 2 1 3 0 2 1 4 1 6 0 1 0 2 0 3 1 3 1 6 1 9 0 44-36 80-80 80-44 0-80-36-80-80 0-3 0-6 1-9 0-1 0-2 0-3 1-2 1-4 1-6 1-1 1-2 1-3 1-2 1-4 2-6 0-1 1-2 1-3 1-2 2-4 3-7 0 0 1 0 1-1 1-2 3-5 4-7 1-1 1-2 2-2 1-2 2-4 4-5 0-1 1-2 2-2 1-2 2-3 4-5 1 0 1-1 2-2 2-1 4-2 5-4 1 0 1 0 2-1 0 0-1 0-1 0-2 0-4-1-7-1 0 0 0 0-1 0-2-1-4-1-6-2 0 0-1 0-2 0-2 0-4-1-6-2 0 0 0 0-1 0-2-1-4-1-6-2-1 0-2-1-2-1-2 0-4-1-5-2-1 0-2 0-2-1-2-1-5-2-7-3 0 0 0 0 0 0-2-1-4-3-6-4 0 0-1 0-2-1-1-1-3-2-4-3-1-1-1-1-2-1-1-2-3-3-5-5 0-1-1-1-1-2-1-1-3-2-4-4 0 0-1-1-1-2-2-2-3-4-5-6 0 0 0 0 0 0-1-2-2-5-3-7-1-1-1-1-1-2-1-2-2-4-3-6 0-1 0-2 0-2-1-3-2-6-3-9 0 0 0-1 0-2 0-2-1-5-1-7 0-1 0-2 0-3-1-4-1-7-1-11v-25 0c-7 7-14 14-20 21m153 107c-30 0-54 24-54 54 0 30 24 54 54 54 30 0 54-24 54-54 0-30-24-54-54-54m-16-178c-3 0-7 0-10 1-1 0-2 0-3 0-4 1-8 1-12 2-1 0-2 1-4 1-2 1-5 1-8 2-1 0-3 1-4 1-4 1-7 3-11 4-1 0-3 1-4 1-3 1-5 2-7 3-2 1-3 2-5 3-3 1-5 2-7 3-3 1-5 2-7 4-2 1-4 2-6 4-1 0-2 1-3 1v0 45c0 48 31 68 107 68s107-20 107-68v-45 0c-1 0-2-1-2-1-3-2-5-3-8-5-1-1-3-2-5-2-3-2-5-3-8-4-1-1-3-2-5-3-2-1-4-2-7-3-1 0-3-1-4-1-3-1-7-3-11-4-1 0-2-1-4-1-3-1-5-1-8-2-1 0-3-1-4-1-4-1-8-1-12-2-1 0-2 0-3 0-3-1-6-1-10-1-1-1-2-1-3-1-4 0-9 0-13 0-4 0-8 0-13 0-1 0-2 0-3 1m-155-464c-3-1-5-2-7-4-2-1-4-2-6-3-3-1-5-2-8-4-1 0-3-1-4-2-3-1-5-2-8-3-1 0-2-1-4-1-3-2-7-3-10-4-2 0-3-1-5-1-2-1-5-2-8-2-1-1-2-1-4-1-4-1-8-2-12-2-1 0-2-1-3-1-3 0-6-1-9-1-2 0-3 0-4 0-4 0-8 0-13 0-4 0-8 0-12 0-2 0-3 0-4 0-3 1-7 1-10 1-1 0-2 1-3 1-4 0-8 1-12 2-1 0-2 0-3 1-3 0-6 1-9 2-1 0-3 1-4 1-4 1-7 2-11 4-1 0-2 1-4 1-2 1-5 2-7 3-2 1-3 2-5 2-2 1-5 3-7 4-2 1-4 2-6 3-3 2-5 3-7 4-1 1-2 1-2 2v0 45c0 48 31 67 106 67 76 0 107-19 107-67v-45 0c-1-1-2-1-2-2m-105 150c-29 0-53 24-53 54s24 53 53 53c30 0 54-24 54-53s-24-54-54-54m198 8c0 0 0-1 0-1 0-3 0-6-1-9 0 0 0-1 0-1 0-3-1-6-1-9 0-1 0-1 0-1-1-3-1-6-2-10 0 0 0 0 0 0-1-3-2-7-2-10 0 0-1 0-1 0 0-3-1-6-2-9 0-1-1-1-1-2-1-2-2-5-3-8 0 0 0-1 0-2-1-2-2-4-3-7-1-1-1-2-1-2-1-2-2-5-3-7-1-1-2-2-2-3-1-2-2-3-3-5-1-1-1-3-2-4-1-1-2-3-3-4-1-2-2-3-3-5 0-1-1-2-2-3-1-2-2-4-4-5 0-1-1-2-1-2-2-2-3-4-5-6 0 0 0 0 0-1-6-7-13-14-20-20v0 25c0 4 0 7 0 10 0 1 0 2-1 3 0 3 0 5-1 8 0 1 0 1 0 2-1 3-1 6-2 9 0 0-1 1-1 1-1 3-1 5-2 7-1 0-1 1-1 2-1 2-2 4-4 6 0 1 0 1 0 1-1 2-3 4-4 6-1 1-1 1-2 2-1 1-2 3-3 4-1 1-1 1-2 2-1 1-3 3-5 4 0 1-1 1-1 1-2 2-3 3-5 4-1 0-1 1-2 1-1 1-3 2-5 3 0 1-1 1-1 1-2 1-4 2-6 3-1 0-2 1-2 1-2 1-4 1-5 2-1 0-2 0-2 1-2 0-5 1-7 2 0 0-1 0-1 0-2 1-4 1-6 2-1 0-1 0-2 0-2 1-4 1-6 2 0 0-1 0-1 0-2 0-5 1-7 1 0 0 0 0 0 0 0 0 1 1 1 1 2 1 4 3 5 4 1 1 2 1 2 2 2 1 3 3 5 4 0 1 1 2 2 3 1 1 2 3 4 4 0 1 1 2 1 2 2 3 3 5 5 8 0 0 0 1 0 1 1 2 2 5 3 7 1 1 1 2 1 3 1 1 2 3 2 5 0 1 1 2 1 3 0 2 1 5 1 7 0 1 1 1 1 2 0 3 0 7 0 10 0 44-36 80-80 80-44 0-80-36-80-80 0-3 1-7 1-10 0-1 0-1 0-2 1-2 1-5 2-7 0-1 0-2 0-3 1-2 2-4 2-5 1-1 1-2 1-3 1-2 2-5 3-7 1 0 1-1 1-1 1-3 3-5 5-8 0 0 1-1 1-2 1-1 3-3 4-4 1-1 1-2 2-3 1-1 3-3 4-4 1-1 2-1 2-2 2-1 4-3 6-4 0 0 0-1 1-1 0 0 0 0-1 0-2 0-4-1-7-1 0 0 0 0 0 0-2-1-4-1-6-2-1 0-2 0-2 0-2-1-4-1-6-2-1 0-1 0-1 0-3-1-5-2-7-2-1-1-1-1-2-1-2-1-3-1-5-2-1 0-1-1-2-1-2-1-4-2-6-3-1 0-1 0-1-1-2-1-4-2-6-3 0 0-1-1-1-1-2-1-4-2-5-4-1 0-1 0-1-1-2-1-4-3-6-4 0-1 0-1-1-2-1-1-3-3-4-4 0-1-1-1-1-2-2-2-3-4-4-6 0 0-1 0-1-1-1-2-2-4-3-6 0-1-1-2-1-2-1-2-2-4-2-7-1 0-1-1-1-1-1-3-2-6-2-9 0-1-1-1-1-2 0-3 0-5-1-8 0-1 0-2 0-3 0-3-1-6-1-10v-25 0c-7 6-13 13-19 21 0 0 0 0 0 0-2 2-4 4-5 6-1 1-1 1-2 2-1 1-2 3-4 5 0 1-1 2-2 3-1 2-2 3-3 5 0 1-1 3-2 4-1 1-2 3-2 4-1 2-2 3-3 5-1 1-1 2-2 3-1 2-2 4-3 7 0 0-1 1-1 2-1 3-2 5-3 7 0 1-1 2-1 2-1 3-2 6-3 8 0 1 0 1 0 2-1 3-2 6-3 9 0 0 0 0 0 0-1 3-2 7-2 10 0 0 0 0 0 0-1 3-2 7-2 10 0 0 0 0 0 0-1 4-1 7-2 10 0 0 0 0 0 1 0 3 0 6 0 9 0 0 0 1-1 1 0 4 0 7 0 11 0 109 89 198 198 198 5 0 9 0 13-1 1 0 2 0 3 0 47-4 90-24 123-56 0 0 0 0 0 0 3-3 6-6 9-9 1-1 1-2 2-3 2-2 4-5 6-7 1-1 2-2 2-3 3-3 5-6 7-9 1-2 2-3 2-4 2-2 3-5 5-7 0-1 1-3 2-4 2-3 4-7 5-10 0-1 1-1 1-1h0c0-2 1-3 1-4 1-2 2-3 2-5 1-1 2-3 2-5 1-1 1-3 2-4 1-2 1-4 2-5 0-2 1-3 1-5 1-2 1-3 2-5 0-2 0-3 1-4 0-2 1-4 1-6 0-2 1-3 1-4 0-2 1-4 1-6 0-2 0-3 1-5 0-2 0-4 0-6 1-1 1-3 1-5 0-2 0-3 0-5 0-3 0-7 0-10 0-4 0-7 0-11m458-161c-2-2-4-3-7-4-2-1-4-2-6-3-2-2-5-3-7-4-2-1-3-2-5-2-2-1-5-2-7-3-1-1-3-1-4-2-4-1-7-2-11-3-1-1-3-1-4-2-3-1-6-1-8-2-2 0-3 0-4-1-4-1-8-1-12-2-1 0-2 0-3 0-3-1-7-1-10-1-1 0-2 0-4-1-4 0-8 0-12 0-4 0-9 0-13 0-1 1-2 1-3 1-4 0-7 0-10 1-1 0-2 0-3 0-4 1-8 1-12 2-1 1-3 1-4 1-3 1-5 1-8 2-2 1-3 1-5 2-3 1-7 2-10 3-2 1-3 1-4 2-3 1-5 2-7 3-2 0-4 1-5 2-3 1-5 2-8 4-2 1-4 2-6 3-2 1-4 2-6 4-1 0-2 1-3 1v0 45c0 48 31 68 107 68 76 0 107-20 107-68v-45 0c-1 0-2-1-3-1m-104 149c-30 0-54 25-54 54 0 26 19 48 43 53 4 1 7 1 11 1 4 0 7 0 11-1 24-5 43-27 43-53 0-29-25-54-54-54m198 9c0-1 0-1 0-2-1-3-1-6-1-9 0 0 0 0 0-1-1-3-1-6-2-9 0 0 0 0 0-1 0-3-1-6-1-9 0 0-1-1-1-1 0-3-1-6-2-9 0 0 0-1 0-1-1-3-2-6-3-9 0 0 0-1 0-1-1-3-2-6-3-8 0-1-1-1-1-2-1-3-2-5-3-7 0-1-1-2-1-3-1-2-2-4-3-6 0-1-1-2-2-3-1-2-1-4-2-6-1-1-2-2-3-4-1-1-1-2-2-4-1-1-2-3-3-4-1-1-2-2-2-3-2-2-3-4-4-6-1 0-1-1-1-2-2-2-4-4-5-6 0 0 0 0 0 0-7-7-13-14-20-21v0 25c0 4-1 8-1 11 0 1 0 2 0 3 0 2-1 5-1 7 0 1 0 2-1 3 0 3-1 5-2 8 0 1 0 1 0 2-1 2-2 4-3 6 0 1 0 2-1 2-1 3-2 5-3 7 0 0 0 0 0 0-2 3-3 5-5 7 0 0-1 1-1 1-1 2-3 3-4 5 0 0-1 1-1 1-2 2-4 3-6 5 0 0 0 1-1 1-1 1-3 2-4 3-1 1-2 1-2 2-2 1-4 2-6 3 0 0 0 0 0 0-3 1-5 3-7 4 0 0-1 0-2 0-1 1-3 2-5 2 0 1-1 1-2 1-2 1-4 2-6 2-1 0-1 1-1 1-2 0-4 1-6 1-1 0-2 1-2 1-2 0-4 1-6 1-1 0-1 0-1 0-3 1-5 1-7 1 0 0-1 0-1 0 1 1 1 1 2 2 1 1 3 2 5 4 1 0 1 1 2 2 1 1 3 2 4 4 1 1 2 1 2 2 2 2 3 3 4 5 1 1 1 1 2 2 1 2 3 5 4 7 0 1 1 1 1 2 1 2 2 4 3 6 0 1 1 2 1 3 1 2 1 4 2 6 0 1 0 2 1 3 0 2 0 4 1 6 0 1 0 2 0 3 0 3 1 6 1 9 0 33-20 62-49 74-10 4-20 6-31 6-11 0-22-2-31-6-29-12-49-41-49-74 0-3 0-6 1-9 0-1 0-2 0-3 0-2 1-4 1-6 0-1 1-2 1-3 0-2 1-4 2-6 0-1 0-2 1-3 1-2 2-4 3-6 0-1 0-1 1-2 1-2 2-5 4-7 1-1 1-1 2-2 1-2 2-3 3-5 1-1 2-1 3-2 1-2 2-3 4-4 0-1 1-2 2-2 2-2 3-3 5-4 1-1 1-1 1-2 0 0 0 0 0 0-2 0-5 0-7-1 0 0-1 0-1 0-2 0-4-1-6-1-1 0-1-1-2-1-2 0-4-1-6-1 0 0-1-1-1-1-2 0-5-1-7-2 0 0-1 0-1-1-2 0-4-1-6-2 0 0-1 0-1 0-3-1-5-3-7-4 0 0-1 0-1 0-2-1-3-2-5-3-1-1-1-1-2-2-2-1-3-2-5-3 0 0 0-1-1-1-2-2-3-3-5-5-1 0-1-1-1-1-2-2-3-3-4-5-1 0-1-1-2-1-1-2-3-4-4-7 0 0 0 0 0 0-1-2-3-4-4-7 0 0 0-1-1-2 0-2-1-4-2-6 0-1 0-1-1-2 0-3-1-5-2-8 0-1 0-2 0-3-1-2-1-5-1-7 0-1 0-2-1-3 0-3 0-7 0-11v-25 0c-7 7-14 14-20 21 0 0 0 0 0 0-2 2-3 4-5 6 0 1-1 2-1 2-2 2-3 4-4 6-1 1-1 2-2 3-1 1-2 3-3 4-1 2-2 3-3 4 0 2-1 3-2 4-1 2-2 4-3 6 0 1-1 2-1 3-1 2-2 4-3 6-1 1-1 2-2 3-1 2-2 4-3 7 0 1 0 1 0 2-1 2-2 5-3 8 0 0 0 1-1 1-1 3-1 6-2 9 0 0 0 1 0 1-1 3-2 6-3 9 0 0 0 1 0 1-1 3-1 6-2 9 0 1 0 1 0 1 0 3-1 6-1 9 0 1 0 1 0 1 0 3-1 6-1 9 0 1 0 1 0 2 0 3 0 7 0 10 0 109 89 198 198 198 109 0 198-89 198-198 0-3 0-7 0-10" horiz-adv-x="1000" />

<glyph glyph-name="instagram" unicode="&#xf16d;" d="M571 350q0 59-41 101t-101 42-101-42-42-101 42-101 101-42 101 42 41 101z m77 0q0-91-64-156t-155-64-156 64-64 156 64 156 156 64 155-64 64-156z m61 229q0-21-15-36t-37-15-36 15-15 36 15 36 36 15 37-15 15-36z m-280 123q-4 0-43 0t-59 0-54-2-57-5-40-11q-28-11-49-32t-33-49q-6-16-10-40t-6-58-1-53 0-59 0-43 0-43 0-59 1-53 6-58 10-40q12-28 33-49t49-32q16-6 40-11t57-5 54-2 59 0 43 0 42 0 59 0 54 2 58 5 39 11q28 11 50 32t32 49q6 16 10 40t6 58 1 53 0 59 0 43 0 43 0 59-1 53-6 58-10 40q-11 28-32 49t-50 32q-16 6-39 11t-58 5-54 2-59 0-42 0z m428-352q0-128-3-177-5-116-69-180t-179-69q-50-3-177-3t-177 3q-116 6-180 69t-69 180q-3 49-3 177t3 177q5 116 69 180t180 69q49 3 177 3t177-3q116-6 179-69t69-180q3-49 3-177z" horiz-adv-x="857.1" />

<glyph glyph-name="tripadvisor" unicode="&#xf262;" d="M363 294q0-22-15-37t-37-16q-21 0-37 16t-15 37q0 21 15 36t37 16q22 0 37-16t15-36z m644 0q0-22-15-37t-37-15-37 15-16 37 16 37 37 15 37-15 15-37z m-580 0q0 44-32 76t-76 31-76-31-31-76 31-76 76-32 76 32 32 76z m643 0q0 45-31 76t-76 32q-44 0-76-32t-32-76 31-76 77-31 76 31 31 76z m-596 0q0-65-45-111t-110-45q-64 0-110 46t-45 110 45 109 110 46 110-46 45-109z m644 0q0-64-45-109t-110-46q-65 0-110 46t-45 109 45 110 110 45q64 0 110-45t45-110z m-538-1q0 106-75 182t-182 75q-70 0-129-34t-94-94-35-129 35-130 94-94 129-34q106 0 182 75t75 183z m373 319q-142 62-310 62-178 0-320-61 65 0 125-26t101-68 69-102 25-124q0 64 24 122t66 101 99 68 121 28z m267-319q0 106-75 182t-182 75-182-75-76-182 76-183 182-75 182 75 75 183z m-148 315h214q-25-28-42-63t-22-64q61-85 61-188 0-87-43-161t-117-116-160-43q-74 0-139 31t-109 87q-26-32-72-100-6 12-30 46t-42 54q-44-55-109-87t-139-31q-87 0-161 43t-116 116-43 161q0 103 61 188-5 28-22 64t-42 63h204q83 56 198 88t241 31q125 0 235-31t194-88z" horiz-adv-x="1285.7" />

<glyph glyph-name="snapchat" unicode="&#xf2ab;" d="M714 209q0 13-12 15-38 9-66 33t-45 61q-4 10-4 14 0 8 11 14t24 10 24 11 11 20q0 11-10 18t-22 7q-7 0-18-4t-17-5q-2 0-7 1 3 53 3 64 0 44-9 63-21 44-58 68t-85 24q-111 0-153-92-10-19-10-63 0-11 3-64-2-1-8-1-6 0-18 4t-16 4q-12 0-22-6t-10-18q0-12 11-20t24-11 24-10 11-14q0-4-4-14-35-77-110-94-13-2-13-15 0-25 77-38 1-2 3-14t7-17 13-5q6 0 21 2t22 3q19 0 37-9t30-18 32-18 43-8q24 0 44 8t32 18 30 18 37 9q8 0 23-3t21-2q9 0 13 6t6 17 3 13q77 13 77 38z m143 141q0-117-57-215t-156-156-215-58-216 58-155 156-58 215 58 215 155 156 216 58 215-58 156-156 57-215z" horiz-adv-x="857.1" />

<glyph glyph-name="snapchat-ghost" unicode="&#xf2ac;" d="M473 779q75 0 134-39t92-107q15-32 15-100 0-26-5-106 8-4 15-4 10 0 29 7t28 8q16 0 32-10t15-26q0-18-18-30t-38-18-39-16-18-26q0-9 7-24 21-46 57-84t81-57q16-6 45-12 15-4 15-20 0-39-122-57-4-6-6-22t-8-26-18-10q-11 0-35 3t-36 4q-20 0-34-3-18-3-35-13t-33-21-32-22-43-19-55-8q-29 0-54 8t-41 19-33 22-32 21-35 13q-14 3-35 3-13 0-36-4t-33-5q-14 0-19 11t-8 26-6 23q-123 18-123 57 0 16 16 20 29 6 45 12 43 18 80 57t58 84q6 15 6 24 0 15-17 26t-39 17-39 17-18 29q0 15 15 26t31 10q8 0 26-7t30-7q10 0 18 4-5 79-5 106 0 68 15 100 36 76 96 110t147 36z" horiz-adv-x="928.6" />

<glyph glyph-name="snapchat-square" unicode="&#xf2ad;" d="M714 209q0 13-12 15-37 8-66 33t-44 61q-4 7-4 14 0 8 11 14t23 10 24 11 11 20q0 11-10 18t-22 7q-6 0-17-4t-18-5q-2 0-7 1 3 35 3 64 0 44-9 64-21 43-58 68t-85 24q-110 0-153-92-10-21-10-64 0-21 3-64-6-1-8-1-6 0-18 5t-17 4q-11 0-21-7t-10-18q0-12 11-20t24-11 24-10 11-14q0-7-4-14-36-77-111-94-12-2-12-15 0-26 77-38 1-3 3-15t6-17 13-5q7 0 22 3t21 3q20 0 38-9t30-18 32-18 43-8q24 0 44 8t32 18 30 18 38 9q7 0 22-3t22-2q8 0 12 5t7 17 2 14q77 12 77 38z m143 409v-536q0-66-47-113t-114-48h-535q-67 0-114 48t-47 113v536q0 66 47 113t114 48h535q67 0 114-48t47-113z" horiz-adv-x="857.1" />
</font>
</defs>
</svg>
